<!-- Generator: Adobe Illustrator 19.2.1, SVG Export Plug-In  -->
<svg version="1.1"
	 xmlns="http://www.w3.org/2000/svg" xmlns:xlink="http://www.w3.org/1999/xlink" xmlns:a="http://ns.adobe.com/AdobeSVGViewerExtensions/3.0/"
	 x="0px" y="0px" width="773.993px" height="198.72px" viewBox="0 0 773.993 198.72"
	 style="enable-background:new 0 0 773.993 198.72;" xml:space="preserve">
<style type="text/css">
	.st0{fill:#FFFFFF;}
</style>
<defs>
</defs>
<g>
	<g>
		<path class="st0" d="M6.84,9.002h42.299v14.579H24.569v10.979h21.689V49.59H24.569v26.909H6.84V9.002z"/>
		<path class="st0" d="M98.638,9.002c18.63,0,33.749,15.209,33.749,33.839c0,18.629-15.119,33.658-33.749,33.658
			c-18.629,0-33.658-15.029-33.658-33.658C64.979,24.211,80.009,9.002,98.638,9.002z M98.638,26.641
			c-8.819,0-16.02,7.2-16.02,16.109c0,8.82,7.2,16.109,16.02,16.109c8.91,0,16.109-7.289,16.109-16.109
			C114.747,33.841,107.548,26.641,98.638,26.641z"/>
		<path class="st0" d="M188.366,76.499L177.927,58.59h-10.979v17.909h-17.729V9.002h28.438c13.68,0,24.84,11.159,24.84,24.839
			c0,7.199-3.15,13.68-8.01,18.179l14.31,24.479H188.366z M166.947,43.29h10.979c5.399,0,9.72-4.229,9.72-9.629
			c0-5.4-4.32-9.72-9.72-9.72h-10.979V43.29z"/>
		<path class="st0" d="M257.575,34.021l27.449-25.019h8.01v67.497h-17.819V41.851l-17.64,16.109l-17.729-16.02v34.559h-17.819V9.002
			h8.01L257.575,34.021z"/>
		<path class="st0" d="M306.626,76.499l31.498-67.497h8.01l31.77,67.497h-17.729l-4.14-8.819h-27.629l-4.05,8.819H306.626z
			 M335.335,52.74h13.77l-6.84-14.85L335.335,52.74z"/>
		<path class="st0" d="M436.405,9.002h28.438c13.68,0,24.839,11.159,24.839,24.839c0,13.59-11.069,24.749-24.479,24.749h-11.07
			v17.909h-17.729V9.002z M454.134,43.29h10.979c5.4,0,9.72-4.229,9.72-9.629c0-5.4-4.319-9.72-9.72-9.72h-10.979V43.29z"/>
		<path class="st0" d="M495.626,76.499l31.498-67.497h8.01l31.77,67.497h-17.729l-4.14-8.819h-27.629l-4.05,8.819H495.626z
			 M524.335,52.74h13.77l-6.84-14.85L524.335,52.74z"/>
		<path class="st0" d="M619.554,76.499L609.114,58.59h-10.979v17.909h-17.729V9.002h28.438c13.68,0,24.84,11.159,24.84,24.839
			c0,7.199-3.15,13.68-8.01,18.179l14.31,24.479H619.554z M598.135,43.29h10.979c5.399,0,9.72-4.229,9.72-9.629
			c0-5.4-4.32-9.72-9.72-9.72h-10.979V43.29z"/>
		<path class="st0" d="M651.774,8.912h53.188v17.639h-17.909v49.948h-17.729V26.551h-17.549V8.912z"/>
		<path class="st0" d="M721.704,9.002h41.938v14.669h-24.209V34.65h21.42V49.59h-21.42v12.42h24.209v14.489h-41.938V9.002z"/>
		<path class="st0" d="M6.84,117.002h25.02c18.629,0,33.748,15.119,33.748,33.748c0,18.63-15.119,33.749-33.748,33.749H6.84V117.002
			z M24.479,167.04h7.47c8.819,0,16.02-7.2,16.02-16.02c0-8.729-7.2-15.93-16.02-15.93h-7.47V167.04z"/>
		<path class="st0" d="M82.349,117.002h41.938v14.669h-24.209v10.979h21.419v14.939h-21.419v12.42h24.209v14.489H82.349V117.002z"/>
		<path class="st0" d="M141.479,117.002h17.729v49.678h24.3v17.819h-42.028V117.002z"/>
		<path class="st0" d="M289.165,139.321c-2.79-2.79-6.75-4.41-11.34-4.41c-9.18,0-15.839,6.659-15.839,15.839
			s6.659,15.84,15.839,15.84c4.59,0,8.55-1.62,11.34-4.5l12.6,12.42c-6.12,6.119-14.579,9.989-23.939,9.989
			c-18.629,0-33.748-15.119-33.748-33.749c0-18.629,15.119-33.748,33.748-33.748c9.27,0,17.64,3.689,23.76,9.81L289.165,139.321z"/>
		<path class="st0" d="M315.267,184.499l31.498-67.497h8.01l31.77,67.497h-17.729l-4.14-8.819h-27.629l-4.05,8.819H315.267z
			 M343.976,160.74h13.77l-6.84-14.85L343.976,160.74z"/>
		<path class="st0" d="M435.595,142.021l27.448-25.019h8.01v67.497h-17.819v-34.648l-17.639,16.109l-17.729-16.02v34.559h-17.819
			v-67.497h8.01L435.595,142.021z"/>
		<path class="st0" d="M489.145,184.499v-67.497h29.789c10.8,0,19.979,9.27,19.979,20.069c0,4.59-1.71,8.819-4.32,12.149
			c4.59,3.689,7.649,9.359,7.649,15.479c0,10.709-9.089,19.799-19.799,19.799H489.145z M515.424,143.371
			c3.239,0,5.85-2.61,5.85-5.851c0-3.239-2.61-5.85-5.85-5.85h-8.55v11.7H515.424z M518.754,169.92c3.239,0,5.85-2.61,5.85-5.85
			c0-3.24-2.79-5.851-5.85-5.851h-11.88v11.7H518.754z"/>
		<path class="st0" d="M557.273,117.002h17.729v67.497h-17.729V117.002z"/>
		<path class="st0" d="M625.401,117.002c18.63,0,33.749,15.209,33.749,33.839c0,18.629-15.119,33.658-33.749,33.658
			c-18.629,0-33.658-15.029-33.658-33.658C591.743,132.211,606.772,117.002,625.401,117.002z M625.401,134.641
			c-8.819,0-16.02,7.2-16.02,16.109c0,8.82,7.2,16.109,16.02,16.109c8.91,0,16.109-7.289,16.109-16.109
			C641.511,141.841,634.312,134.641,625.401,134.641z"/>
	</g>
</g>
</svg>