<!-- Generator: Adobe Illustrator 19.2.1, SVG Export Plug-In  -->
<svg version="1.1"
	 xmlns="http://www.w3.org/2000/svg" xmlns:xlink="http://www.w3.org/1999/xlink" xmlns:a="http://ns.adobe.com/AdobeSVGViewerExtensions/3.0/"
	 x="0px" y="0px" width="208.669px" height="73.52px" viewBox="0 0 208.669 73.52"
	 style="enable-background:new 0 0 208.669 73.52;" xml:space="preserve">
<style type="text/css">
	.st0{fill:#06AEF8;}
	.st1{fill:#00F8FF;}
</style>
<defs>
</defs>
<g>
	<g>
		<rect x="5.987" y="17.853" class="st0" width="10.713" height="39.071"/>
		
			<rect x="18.696" y="10.805" transform="matrix(0.7664 -0.6424 0.6424 0.7664 -9.2912 20.8735)" class="st0" width="10.714" height="24.811"/>
		
			<rect x="36.223" y="18.169" transform="matrix(0.6424 -0.7664 0.7664 0.6424 -0.6392 45.6816)" class="st0" width="24.812" height="10.713"/>
		<path class="st1" d="M11.133,22.266C4.994,22.266,0,17.271,0,11.133C0,4.994,4.994,0,11.133,0c6.14,0,11.133,4.994,11.133,11.133
			C22.266,17.271,17.273,22.266,11.133,22.266z M11.133,6.3c-2.663,0-4.831,2.167-4.831,4.833c0,2.663,2.168,4.83,4.831,4.83
			c2.664,0,4.831-2.167,4.831-4.83C15.964,8.467,13.797,6.3,11.133,6.3z"/>
		<path class="st1" d="M11.133,73.52C4.994,73.52,0,68.526,0,62.387c0-6.141,4.994-11.135,11.133-11.135
			c6.14,0,11.133,4.994,11.133,11.135C22.266,68.526,17.273,73.52,11.133,73.52z M11.133,57.555c-2.663,0-4.831,2.167-4.831,4.833
			c0,2.663,2.168,4.83,4.831,4.83c2.664,0,4.831-2.167,4.831-4.83C15.964,59.722,13.797,57.555,11.133,57.555z"/>
		<rect x="84.128" y="17.853" class="st0" width="10.713" height="39.071"/>
		<path class="st1" d="M89.275,22.266c-6.14,0-11.134-4.994-11.134-11.133C78.141,4.994,83.135,0,89.275,0
			c6.139,0,11.133,4.994,11.133,11.133C100.408,17.271,95.413,22.266,89.275,22.266z M89.275,6.3c-2.664,0-4.832,2.167-4.832,4.833
			c0,2.663,2.168,4.83,4.832,4.83c2.663,0,4.831-2.167,4.831-4.83C94.106,8.467,91.938,6.3,89.275,6.3z"/>
		<path class="st1" d="M89.275,73.52c-6.14,0-11.134-4.994-11.134-11.133c0-6.141,4.994-11.135,11.134-11.135
			c6.139,0,11.133,4.994,11.133,11.135C100.408,68.526,95.413,73.52,89.275,73.52z M89.275,57.555c-2.664,0-4.832,2.167-4.832,4.833
			c0,2.663,2.168,4.83,4.832,4.83c2.663,0,4.831-2.167,4.831-4.83C94.106,59.722,91.938,57.555,89.275,57.555z"/>
		<rect x="55.77" y="17.853" class="st0" width="10.713" height="39.071"/>
		<path class="st1" d="M60.917,22.266c-6.139,0-11.134-4.994-11.134-11.133C49.783,4.994,54.777,0,60.917,0
			C67.055,0,72.05,4.994,72.05,11.133C72.05,17.271,67.055,22.266,60.917,22.266z M60.917,6.3c-2.664,0-4.832,2.167-4.832,4.833
			c0,2.663,2.168,4.83,4.832,4.83c2.663,0,4.832-2.167,4.832-4.83C65.748,8.467,63.58,6.3,60.917,6.3z"/>
		<path class="st1" d="M36.655,48.103c-6.139,0-11.133-4.994-11.133-11.133c0-6.139,4.994-11.133,11.133-11.133
			c6.14,0,11.134,4.994,11.134,11.133C47.788,43.109,42.794,48.103,36.655,48.103z M36.655,32.138c-2.663,0-4.831,2.167-4.831,4.833
			c0,2.663,2.168,4.83,4.831,4.83c2.664,0,4.833-2.167,4.833-4.83C41.487,34.305,39.319,32.138,36.655,32.138z"/>
		<path class="st1" d="M60.917,73.52c-6.139,0-11.134-4.994-11.134-11.133c0-6.141,4.994-11.135,11.134-11.135
			c6.139,0,11.133,4.994,11.133,11.135C72.05,68.526,67.055,73.52,60.917,73.52z M60.917,57.555c-2.664,0-4.832,2.167-4.832,4.833
			c0,2.663,2.168,4.83,4.832,4.83c2.663,0,4.832-2.167,4.832-4.83C65.748,59.722,63.58,57.555,60.917,57.555z"/>
	</g>
	<path class="st0" d="M112.225,31.364c0-3.658,2.659-6.318,6.315-6.318c2.726,0,4.785,1.73,6.116,4.255l12.099,23.003l12.496-23.6
		c1.195-2.327,3.191-3.659,5.585-3.659c3.456,0,5.916,2.527,5.916,5.985v36.295c0,2.857-1.994,4.92-4.853,4.92
		c-2.925,0-4.987-2.062-4.987-4.92V42.597l-9.904,18.68c-0.931,1.862-2.193,3.392-4.453,3.392c-2.327,0-3.591-1.53-4.587-3.392
		l-9.905-18.68v24.729c0,2.857-2.062,4.92-4.919,4.92c-2.925,0-4.92-2.062-4.92-4.92V31.364z"/>
	<path class="st0" d="M168.263,64.467l13.027-16.089L169.259,33.29c-0.798-0.995-1.264-2.192-1.264-3.456
		c0-2.791,1.995-4.788,4.853-4.788c1.729,0,3.192,0.929,4.123,2.195l10.567,13.894l11.035-14.293
		c0.865-1.063,2.262-1.796,3.724-1.796c2.792,0,4.653,1.86,4.653,4.521c0,1.129-0.398,2.261-1.064,3.126l-12.432,15.354
		l12.699,15.955c0.797,0.931,1.396,2.261,1.396,3.522c0,2.725-1.995,4.722-4.853,4.722c-1.729,0-3.192-0.931-4.123-2.195
		l-11.366-14.759L175.84,69.851c-0.996,1.33-2.459,2.395-4.187,2.395c-2.792,0-4.587-1.862-4.587-4.453
		C167.066,66.527,167.531,65.332,168.263,64.467z"/>
	<circle class="st1" cx="117.234" cy="67.697" r="4.902"/>
	<circle class="st1" cx="117.234" cy="30.159" r="4.902"/>
	<path class="st1" d="M141.626,59.771c0.02,2.702-2.164,4.913-4.87,4.93c-2.708,0.017-4.915-2.168-4.932-4.872
		c-0.018-2.706,2.165-4.913,4.873-4.932C139.403,54.881,141.609,57.061,141.626,59.771z"/>
	<ellipse transform="matrix(1 -0.0059 0.0059 1 -0.1729 0.9184)" class="st1" cx="154.352" cy="29.534" rx="4.902" ry="4.902"/>
	<rect x="112.33" y="30.008" class="st1" width="9.733" height="37.864"/>
	
		<rect x="128.151" y="39.668" transform="matrix(0.4982 -0.8671 0.8671 0.4982 34.4519 148.5962)" class="st1" width="34.9" height="9.734"/>
	
		<ellipse transform="matrix(0.1258 -0.992 0.992 0.1258 83.078 229.2983)" class="st1" cx="171.651" cy="67.508" rx="4.903" ry="4.901"/>
	
		<ellipse transform="matrix(0.1261 -0.992 0.992 0.1261 147.4095 226.718)" class="st1" cx="202.381" cy="29.695" rx="4.902" ry="4.901"/>
	<polygon class="st1" points="198.757,26.542 206.306,32.687 175.658,70.365 168.103,64.226 	"/>
	<g>
		<g>
			<path class="st1" d="M120.736,2.022c2.32,0,3.967,0.603,5.114,1.326c0.849,0.531,1.298,1.23,1.298,2.051
				c0,1.278-0.998,2.172-2.195,2.172c-0.6,0-1.123-0.218-1.547-0.507c-0.799-0.531-1.547-0.82-2.745-0.82
				c-2.619,0-4.49,1.93-4.49,4.463s1.871,4.463,4.49,4.463c1.547,0,2.32-0.53,2.894-0.965c0.4-0.313,0.998-0.604,1.621-0.604
				c1.298,0,2.196,0.869,2.196,2.099c0,0.7-0.375,1.327-0.823,1.737c-0.699,0.604-2.645,1.954-5.963,1.954
				c-5.265,0-9.156-3.739-9.156-8.612C111.431,5.905,115.473,2.022,120.736,2.022z"/>
			<path class="st1" d="M134.606,4.483V16.93c0,1.375-1.023,2.341-2.42,2.341c-1.422,0-2.445-0.966-2.445-2.341V4.483
				c0-1.376,1.023-2.341,2.445-2.341C133.582,2.142,134.606,3.106,134.606,4.483z"/>
			<path class="st1" d="M153.441,4.434v7.648c0,4.415-3.169,7.31-7.81,7.31c-4.64,0-7.658-2.75-7.658-7.165V4.434
				c0-1.35,0.997-2.315,2.395-2.315c1.397,0,2.42,0.965,2.42,2.315v7.6c0,1.954,1.197,3.136,2.994,3.136
				c1.796,0,2.993-1.182,2.993-3.136v-7.6c0-1.303,0.998-2.267,2.346-2.267C152.467,2.166,153.441,3.131,153.441,4.434z"/>
			<path class="st1" d="M156.682,4.555c0-1.327,0.997-2.292,2.369-2.292h4.191c5.639,0,9.655,3.57,9.655,8.371
				c0,4.801-4.166,8.516-9.805,8.516h-4.042c-1.372,0-2.369-0.965-2.369-2.292V4.555z M163.292,15.169
				c2.845,0,4.865-1.857,4.865-4.463s-2.02-4.463-4.865-4.463h-1.871v8.926H163.292z"/>
			<path class="st1" d="M173.968,15.845l4.891-11.387c0.648-1.52,1.746-2.316,3.268-2.316c1.522,0,2.595,0.772,3.243,2.316
				l4.74,11.121c0.274,0.651,0.35,1.086,0.35,1.375c0,1.351-0.948,2.316-2.37,2.316c-1.098,0-1.921-0.604-2.346-1.762l-0.474-1.254
				h-6.636l-0.449,1.229c-0.425,1.135-1.198,1.786-2.245,1.786c-1.322,0-2.296-0.917-2.296-2.172
				C173.644,16.785,173.743,16.351,173.968,15.845z M183.923,12.636l-1.946-5.211l-1.971,5.211H183.923z"/>
			<path class="st1" d="M192.453,4.555c0-1.327,0.997-2.292,2.369-2.292h4.191c5.639,0,9.655,3.57,9.655,8.371
				c0,4.801-4.166,8.516-9.805,8.516h-4.042c-1.372,0-2.369-0.965-2.369-2.292V4.555z M199.064,15.169
				c2.845,0,4.865-1.857,4.865-4.463s-2.02-4.463-4.865-4.463h-1.871v8.926H199.064z"/>
		</g>
	</g>
</g>
</svg>