<!-- Generator: Adobe Illustrator 19.2.1, SVG Export Plug-In  -->
<svg version="1.1"
	 xmlns="http://www.w3.org/2000/svg" xmlns:xlink="http://www.w3.org/1999/xlink" xmlns:a="http://ns.adobe.com/AdobeSVGViewerExtensions/3.0/"
	 x="0px" y="0px" width="528.927px" height="225.629px" viewBox="0 0 528.927 225.629"
	 style="enable-background:new 0 0 528.927 225.629;" xml:space="preserve">
<style type="text/css">
	.st0{fill:#1A2042;}
</style>
<defs>
</defs>
<g>
	<g>
		<path class="st0" d="M50.309,31.321c-2.79-2.79-6.75-4.41-11.34-4.41c-9.18,0-15.84,6.659-15.84,15.839s6.66,15.84,15.84,15.84
			c4.59,0,8.55-1.62,11.34-4.5l12.599,12.42c-6.119,6.119-14.579,9.989-23.938,9.989C20.34,76.499,5.22,61.38,5.22,42.75
			c0-18.629,15.12-33.748,33.749-33.748c9.27,0,17.64,3.689,23.759,9.81L50.309,31.321z"/>
		<path class="st0" d="M76.409,76.499l31.499-67.497h8.01l31.769,67.497h-17.729l-4.14-8.819H98.188l-4.05,8.819H76.409z
			 M105.118,52.74h13.77l-6.84-14.85L105.118,52.74z"/>
		<path class="st0" d="M183.778,29.701c0-2.79-2.34-5.13-5.13-5.13s-5.039,2.34-5.039,5.13s2.249,5.039,5.039,5.039
			c6.57,0,12.51,3.15,16.29,8.01c2.88,3.601,4.499,8.1,4.499,13.05c0,11.52-9.27,20.699-20.789,20.699s-20.789-9.09-20.789-20.969
			h15.75c0,2.88,2.249,5.13,5.039,5.13s5.13-2.25,5.13-5.04s-2.34-5.13-5.13-5.13c-11.52,0-20.699-9.18-20.699-20.699
			s9.18-20.789,20.699-20.789s20.789,9.18,20.789,20.699H183.778z"/>
		<path class="st0" d="M247.948,9.002c18.63,0,33.749,15.209,33.749,33.839c0,18.629-15.119,33.658-33.749,33.658
			c-18.629,0-33.658-15.029-33.658-33.658C214.29,24.211,229.319,9.002,247.948,9.002z M247.948,26.641
			c-8.819,0-16.02,7.2-16.02,16.109c0,8.82,7.2,16.109,16.02,16.109c8.91,0,16.109-7.289,16.109-16.109
			C264.058,33.841,256.858,26.641,247.948,26.641z"/>
		<path class="st0" d="M323.367,29.701c0-2.79-2.34-5.13-5.13-5.13s-5.039,2.34-5.039,5.13s2.249,5.039,5.039,5.039
			c6.57,0,12.51,3.15,16.29,8.01c2.88,3.601,4.499,8.1,4.499,13.05c0,11.52-9.27,20.699-20.789,20.699s-20.789-9.09-20.789-20.969
			h15.75c0,2.88,2.249,5.13,5.039,5.13s5.13-2.25,5.13-5.04s-2.34-5.13-5.13-5.13c-11.52,0-20.699-9.18-20.699-20.699
			s9.18-20.789,20.699-20.789s20.789,9.18,20.789,20.699H323.367z"/>
		<path class="st0" d="M401.128,9.002h25.02c18.629,0,33.748,15.119,33.748,33.748c0,18.63-15.119,33.749-33.748,33.749h-25.02
			V9.002z M418.768,59.04h7.47c8.819,0,16.02-7.2,16.02-16.02c0-8.729-7.2-15.93-16.02-15.93h-7.47V59.04z"/>
		<path class="st0" d="M476.637,9.002h41.938v14.669h-24.209V34.65h21.419V49.59h-21.419v12.42h24.209v14.489h-41.938V9.002z"/>
		<path class="st0" d="M7.021,120.779h43.29v12.96h-29.25v11.88h27.63v12.96h-27.63v12.96h30.87v12.96H7.021V120.779z
			 M28.44,103.139H46.8l-15.569,12.96h-11.88L28.44,103.139z"/>
		<path class="st0" d="M130.946,117.002l-22.499,32.309l24.749,35.188h-21.599L97.648,164.7l-14.04,19.799H62.01l24.749-35.188
			L64.26,117.002h21.599l11.79,16.829l11.699-16.829H130.946z"/>
		<path class="st0" d="M145.258,117.002h17.729v67.497h-17.729V117.002z"/>
		<path class="st0" d="M179.637,116.912h53.188v17.639h-17.909v49.948h-17.729v-49.948h-17.55V116.912z"/>
		<path class="st0" d="M278.276,117.002c18.629,0,33.748,15.209,33.748,33.839c0,18.629-15.119,33.658-33.748,33.658
			c-18.63,0-33.659-15.029-33.659-33.658C244.617,132.211,259.646,117.002,278.276,117.002z M278.276,134.641
			c-8.82,0-16.02,7.2-16.02,16.109c0,8.82,7.199,16.109,16.02,16.109c8.909,0,16.109-7.289,16.109-16.109
			C294.386,141.841,287.186,134.641,278.276,134.641z"/>
	</g>
</g>
</svg>