<!-- Generator: Adobe Illustrator 19.2.1, SVG Export Plug-In  -->
<svg version="1.1"
	 xmlns="http://www.w3.org/2000/svg" xmlns:xlink="http://www.w3.org/1999/xlink" xmlns:a="http://ns.adobe.com/AdobeSVGViewerExtensions/3.0/"
	 x="0px" y="0px" width="126.173px" height="44.454px" viewBox="0 0 126.173 44.454"
	 style="enable-background:new 0 0 126.173 44.454;" xml:space="preserve">
<style type="text/css">
	.st0{fill:#06AEF8;}
	.st1{fill:#00F8FF;}
</style>
<defs>
</defs>
<g>
	<g>
		<rect x="3.62" y="10.795" class="st0" width="6.478" height="23.624"/>
		
			<rect x="11.304" y="6.534" transform="matrix(0.7664 -0.6424 0.6424 0.7664 -5.618 12.6212)" class="st0" width="6.478" height="15.002"/>
		
			<rect x="21.902" y="10.986" transform="matrix(0.6424 -0.7664 0.7664 0.6424 -0.3865 27.6216)" class="st0" width="15.003" height="6.478"/>
		<path class="st1" d="M6.732,13.463C3.02,13.463,0,10.443,0,6.732C0,3.02,3.02,0,6.732,0c3.712,0,6.732,3.02,6.732,6.732
			C13.463,10.443,10.444,13.463,6.732,13.463z M6.732,3.81c-1.61,0-2.921,1.31-2.921,2.922c0,1.61,1.311,2.921,2.921,2.921
			c1.611,0,2.921-1.31,2.921-2.921C9.653,5.12,8.343,3.81,6.732,3.81z"/>
		<path class="st1" d="M6.732,44.454C3.02,44.454,0,41.434,0,37.723c0-3.713,3.02-6.733,6.732-6.733c3.712,0,6.732,3.02,6.732,6.733
			C13.463,41.434,10.444,44.454,6.732,44.454z M6.732,34.801c-1.61,0-2.921,1.31-2.921,2.922c0,1.61,1.311,2.921,2.921,2.921
			c1.611,0,2.921-1.31,2.921-2.921C9.653,36.111,8.343,34.801,6.732,34.801z"/>
		<rect x="50.868" y="10.795" class="st0" width="6.478" height="23.624"/>
		<path class="st1" d="M53.98,13.463c-3.712,0-6.732-3.02-6.732-6.732C47.248,3.02,50.268,0,53.98,0c3.712,0,6.732,3.02,6.732,6.732
			C60.712,10.443,57.692,13.463,53.98,13.463z M53.98,3.81c-1.611,0-2.922,1.31-2.922,2.922c0,1.61,1.311,2.921,2.922,2.921
			c1.61,0,2.921-1.31,2.921-2.921C56.902,5.12,55.591,3.81,53.98,3.81z"/>
		<path class="st1" d="M53.98,44.454c-3.712,0-6.732-3.02-6.732-6.732c0-3.713,3.02-6.733,6.732-6.733
			c3.712,0,6.732,3.02,6.732,6.733C60.712,41.434,57.692,44.454,53.98,44.454z M53.98,34.801c-1.611,0-2.922,1.31-2.922,2.922
			c0,1.61,1.311,2.921,2.922,2.921c1.61,0,2.921-1.31,2.921-2.921C56.902,36.111,55.591,34.801,53.98,34.801z"/>
		<rect x="33.722" y="10.795" class="st0" width="6.478" height="23.624"/>
		<path class="st1" d="M36.834,13.463c-3.712,0-6.732-3.02-6.732-6.732C30.101,3.02,33.121,0,36.834,0
			c3.712,0,6.732,3.02,6.732,6.732C43.565,10.443,40.545,13.463,36.834,13.463z M36.834,3.81c-1.611,0-2.922,1.31-2.922,2.922
			c0,1.61,1.311,2.921,2.922,2.921c1.61,0,2.921-1.31,2.921-2.921C39.755,5.12,38.444,3.81,36.834,3.81z"/>
		<path class="st1" d="M22.163,29.086c-3.712,0-6.732-3.02-6.732-6.732c0-3.712,3.02-6.732,6.732-6.732
			c3.712,0,6.732,3.02,6.732,6.732C28.896,26.066,25.876,29.086,22.163,29.086z M22.163,19.432c-1.61,0-2.921,1.31-2.921,2.922
			c0,1.61,1.311,2.921,2.921,2.921c1.611,0,2.922-1.31,2.922-2.921C25.085,20.742,23.774,19.432,22.163,19.432z"/>
		<path class="st1" d="M36.834,44.454c-3.712,0-6.732-3.02-6.732-6.732c0-3.713,3.02-6.733,6.732-6.733
			c3.712,0,6.732,3.02,6.732,6.733C43.565,41.434,40.545,44.454,36.834,44.454z M36.834,34.801c-1.611,0-2.922,1.31-2.922,2.922
			c0,1.61,1.311,2.921,2.922,2.921c1.61,0,2.921-1.31,2.921-2.921C39.755,36.111,38.444,34.801,36.834,34.801z"/>
	</g>
	<path class="st0" d="M67.857,18.964c0-2.212,1.608-3.82,3.819-3.82c1.648,0,2.894,1.046,3.698,2.573l7.316,13.909l7.556-14.27
		c0.723-1.407,1.929-2.212,3.377-2.212c2.09,0,3.577,1.528,3.577,3.619v21.946c0,1.728-1.206,2.975-2.934,2.975
		c-1.769,0-3.015-1.247-3.015-2.975V25.757l-5.988,11.295c-0.563,1.126-1.326,2.051-2.693,2.051c-1.407,0-2.172-0.925-2.774-2.051
		l-5.989-11.295v14.953c0,1.728-1.246,2.975-2.974,2.975c-1.769,0-2.975-1.247-2.975-2.975V18.964z"/>
	<path class="st0" d="M101.741,38.98l7.877-9.728l-7.275-9.123c-0.482-0.602-0.764-1.326-0.764-2.09
		c0-1.688,1.206-2.895,2.934-2.895c1.046,0,1.93,0.562,2.493,1.327l6.39,8.401l6.672-8.642c0.523-0.643,1.368-1.086,2.251-1.086
		c1.688,0,2.814,1.125,2.814,2.734c0,0.683-0.241,1.367-0.644,1.89l-7.517,9.284l7.678,9.647c0.482,0.563,0.844,1.367,0.844,2.13
		c0,1.648-1.207,2.855-2.934,2.855c-1.046,0-1.93-0.563-2.493-1.327l-6.873-8.924l-6.873,8.803
		c-0.602,0.804-1.487,1.448-2.532,1.448c-1.688,0-2.774-1.126-2.774-2.693C101.017,40.226,101.298,39.503,101.741,38.98z"/>
	<circle class="st1" cx="70.886" cy="40.934" r="2.964"/>
	<circle class="st1" cx="70.886" cy="18.236" r="2.964"/>
	<ellipse transform="matrix(1 -0.0059 0.0059 1 -0.2134 0.4918)" class="st1" cx="82.672" cy="36.158" rx="2.964" ry="2.964"/>
	<ellipse transform="matrix(1 -0.0059 0.0059 1 -0.1044 0.5547)" class="st1" cx="93.329" cy="17.858" rx="2.964" ry="2.964"/>
	<rect x="67.921" y="18.144" class="st1" width="5.885" height="22.895"/>
	
		<rect x="77.487" y="23.985" transform="matrix(0.4982 -0.8671 0.8671 0.4982 20.8317 89.8496)" class="st1" width="21.103" height="5.885"/>
	
		<ellipse transform="matrix(0.1258 -0.992 0.992 0.1258 50.2333 138.646)" class="st1" cx="103.789" cy="40.819" rx="2.965" ry="2.964"/>
	
		<ellipse transform="matrix(0.1261 -0.992 0.992 0.1261 89.1317 137.0858)" class="st1" cx="122.37" cy="17.955" rx="2.964" ry="2.964"/>
	
		<rect x="98.51" y="26.356" transform="matrix(0.6313 -0.7755 0.7755 0.6313 19.0139 98.5908)" class="st1" width="29.37" height="5.886"/>
	<g>
		<g>
			<path class="st1" d="M73.004,1.222c1.403,0,2.399,0.364,3.092,0.802c0.513,0.321,0.785,0.744,0.785,1.24
				c0,0.773-0.603,1.313-1.327,1.313c-0.363,0-0.679-0.132-0.935-0.306c-0.483-0.321-0.935-0.496-1.66-0.496
				c-1.584,0-2.715,1.167-2.715,2.699s1.131,2.699,2.715,2.699c0.935,0,1.403-0.321,1.75-0.583c0.242-0.19,0.603-0.365,0.98-0.365
				c0.785,0,1.328,0.526,1.328,1.269c0,0.423-0.227,0.802-0.498,1.05c-0.423,0.365-1.599,1.182-3.605,1.182
				c-3.183,0-5.536-2.261-5.536-5.207S69.821,1.222,73.004,1.222z"/>
			<path class="st1" d="M81.39,2.71v7.526c0,0.831-0.619,1.415-1.463,1.415c-0.86,0-1.479-0.584-1.479-1.415V2.71
				c0-0.832,0.619-1.415,1.479-1.415C80.771,1.295,81.39,1.878,81.39,2.71z"/>
			<path class="st1" d="M92.778,2.681v4.624c0,2.67-1.916,4.42-4.722,4.42c-2.805,0-4.631-1.663-4.631-4.332V2.681
				c0-0.817,0.603-1.4,1.448-1.4s1.463,0.583,1.463,1.4v4.595c0,1.182,0.724,1.896,1.81,1.896c1.086,0,1.81-0.714,1.81-1.896V2.681
				c0-0.788,0.603-1.371,1.418-1.371C92.19,1.31,92.778,1.893,92.778,2.681z"/>
			<path class="st1" d="M94.738,2.754c0-0.802,0.603-1.386,1.433-1.386h2.534c3.409,0,5.838,2.159,5.838,5.062
				s-2.519,5.149-5.928,5.149h-2.444c-0.83,0-1.433-0.583-1.433-1.386V2.754z M98.735,9.172c1.72,0,2.942-1.123,2.942-2.699
				s-1.222-2.699-2.942-2.699h-1.131v5.397H98.735z"/>
			<path class="st1" d="M105.19,9.581l2.957-6.885c0.392-0.919,1.056-1.401,1.976-1.401c0.921,0,1.569,0.467,1.961,1.401
				l2.866,6.724c0.166,0.394,0.211,0.657,0.211,0.831c0,0.817-0.573,1.401-1.433,1.401c-0.664,0-1.161-0.365-1.418-1.065
				l-0.286-0.758h-4.012l-0.272,0.743c-0.257,0.686-0.725,1.08-1.358,1.08c-0.8,0-1.388-0.554-1.388-1.313
				C104.994,10.149,105.055,9.886,105.19,9.581z M111.21,7.64l-1.177-3.151l-1.192,3.151H111.21z"/>
			<path class="st1" d="M116.368,2.754c0-0.802,0.603-1.386,1.433-1.386h2.534c3.409,0,5.838,2.159,5.838,5.062
				s-2.519,5.149-5.928,5.149H117.8c-0.83,0-1.433-0.583-1.433-1.386V2.754z M120.365,9.172c1.72,0,2.942-1.123,2.942-2.699
				s-1.222-2.699-2.942-2.699h-1.131v5.397H120.365z"/>
		</g>
	</g>
</g>
</svg>