<!-- Generator: Adobe Illustrator 19.2.1, SVG Export Plug-In  -->
<svg version="1.1"
	 xmlns="http://www.w3.org/2000/svg" xmlns:xlink="http://www.w3.org/1999/xlink" xmlns:a="http://ns.adobe.com/AdobeSVGViewerExtensions/3.0/"
	 x="0px" y="0px" width="226.795px" height="26.208px" viewBox="0 0 226.795 26.208"
	 style="enable-background:new 0 0 226.795 26.208;" xml:space="preserve">
<style type="text/css">
	.st0{fill:#0025FF;}
</style>
<defs>
</defs>
<g>
	<path class="st0" d="M1.976,2.599h8.216c3.952,0,7.176,3.225,7.176,7.177c0,3.926-3.198,7.15-7.072,7.15H7.098V22.1H1.976V2.599z
		 M7.098,12.505h3.172c1.56,0,2.808-1.222,2.808-2.782c0-1.56-1.248-2.808-2.808-2.808H7.098V12.505z"/>
	<path class="st0" d="M33.385,22.1l-3.016-5.174h-3.172V22.1h-5.122V2.599h8.216c3.952,0,7.176,3.225,7.176,7.177
		c0,2.08-0.91,3.952-2.314,5.252l4.134,7.072H33.385z M27.196,12.505h3.172c1.56,0,2.808-1.222,2.808-2.782
		c0-1.56-1.248-2.808-2.808-2.808h-3.172V12.505z"/>
	<path class="st0" d="M43.758,2.599h12.117v4.238H48.88v3.172h6.188v4.316H48.88v3.588h6.995V22.1H43.758V2.599z"/>
	<path class="st0" d="M68.666,8.579c0-0.806-0.676-1.482-1.482-1.482c-0.806,0-1.456,0.677-1.456,1.482s0.65,1.456,1.456,1.456
		c1.898,0,3.614,0.91,4.706,2.314c0.832,1.04,1.3,2.34,1.3,3.77c0,3.328-2.678,5.98-6.006,5.98s-6.006-2.626-6.006-6.059h4.55
		c0,0.832,0.65,1.482,1.456,1.482c0.806,0,1.482-0.65,1.482-1.456s-0.676-1.482-1.482-1.482c-3.328,0-5.98-2.651-5.98-5.979
		s2.652-6.007,5.98-6.007s6.006,2.652,6.006,5.98H68.666z"/>
	<path class="st0" d="M78.753,2.599h5.122V22.1h-5.122V2.599z"/>
	<path class="st0" d="M99.085,2.599c5.382,0,9.75,4.395,9.75,9.776c0,5.383-4.368,9.725-9.75,9.725
		c-5.382,0-9.725-4.342-9.725-9.725C89.361,6.993,93.703,2.599,99.085,2.599z M99.085,7.695c-2.548,0-4.628,2.08-4.628,4.654
		c0,2.548,2.08,4.654,4.628,4.654c2.574,0,4.654-2.106,4.654-4.654C103.74,9.775,101.66,7.695,99.085,7.695z"/>
	<path class="st0" d="M128.673,22.1l-9.205-9.23v9.23h-5.122V2.599h2.08l9.23,9.204V2.599h5.122V22.1H128.673z"/>
	<path class="st0" d="M135.354,22.1l9.101-19.501h2.314l9.178,19.501h-5.122l-1.196-2.548h-7.982l-1.17,2.548H135.354z
		 M143.648,15.235h3.978l-1.976-4.29L143.648,15.235z"/>
	<path class="st0" d="M170.767,9.827l7.93-7.229h2.314V22.1h-5.148V12.089l-5.096,4.654l-5.123-4.628V22.1h-5.148V2.599h2.314
		L170.767,9.827z"/>
	<path class="st0" d="M196.221,2.599c5.382,0,9.75,4.395,9.75,9.776c0,5.383-4.368,9.725-9.75,9.725s-9.725-4.342-9.725-9.725
		C186.496,6.993,190.838,2.599,196.221,2.599z M196.221,7.695c-2.548,0-4.628,2.08-4.628,4.654c0,2.548,2.08,4.654,4.628,4.654
		c2.574,0,4.654-2.106,4.654-4.654C200.875,9.775,198.794,7.695,196.221,7.695z"/>
	<path class="st0" d="M218.658,8.579c0-0.806-0.676-1.482-1.482-1.482s-1.456,0.677-1.456,1.482s0.65,1.456,1.456,1.456
		c1.898,0,3.614,0.91,4.706,2.314c0.832,1.04,1.3,2.34,1.3,3.77c0,3.328-2.678,5.98-6.006,5.98s-6.006-2.626-6.006-6.059h4.55
		c0,0.832,0.65,1.482,1.456,1.482s1.482-0.65,1.482-1.456s-0.676-1.482-1.482-1.482c-3.328,0-5.98-2.651-5.98-5.979
		s2.652-6.007,5.98-6.007s6.006,2.652,6.006,5.98H218.658z"/>
</g>
</svg>