<!-- Generator: Adobe Illustrator 19.2.1, SVG Export Plug-In  -->
<svg version="1.1"
	 xmlns="http://www.w3.org/2000/svg" xmlns:xlink="http://www.w3.org/1999/xlink" xmlns:a="http://ns.adobe.com/AdobeSVGViewerExtensions/3.0/"
	 x="0px" y="0px" width="168.358px" height="168.358px" viewBox="0 0 168.358 168.358"
	 style="enable-background:new 0 0 168.358 168.358;" xml:space="preserve">
<style type="text/css">
	.st0{fill:#00F8FF;}
	.st1{fill:#FFFFFF;}
	.st2{fill:#1D1D1B;}
</style>
<defs>
</defs>
<circle class="st0" cx="84.179" cy="84.179" r="84.179"/>
<g>
	<path class="st1" d="M59.975,66.417h-9.841c-9.123,0-16.519,7.396-16.519,16.519s7.396,16.519,16.519,16.519h10.193"/>
	<path class="st2" d="M60.327,101.692H50.134c-10.342,0-18.756-8.414-18.756-18.757s8.414-18.757,18.756-18.757h9.841
		c1.236,0,2.237,1.002,2.237,2.237s-1.002,2.237-2.237,2.237h-9.841c-7.875,0-14.282,6.407-14.282,14.282
		s6.406,14.282,14.282,14.282h10.193c1.236,0,2.237,1.002,2.237,2.237S61.562,101.692,60.327,101.692z"/>
</g>
<path class="st2" d="M71.445,105.049h-6.477c-3.018,0-5.472-2.455-5.472-5.473V64.379c0-3.017,2.455-5.472,5.472-5.472h6.477
	c3.018,0,5.472,2.455,5.472,5.472v35.197C76.918,102.595,74.463,105.049,71.445,105.049z M64.968,63.382
	c-0.55,0-0.998,0.448-0.998,0.997v35.197c0,0.551,0.448,0.998,0.998,0.998h6.477c0.55,0,0.998-0.448,0.998-0.998V64.379
	c0-0.549-0.448-0.997-0.998-0.997H64.968z"/>
<path class="st2" d="M112.62,119.35c-4.549,0-8.25-3.701-8.25-8.25V46.22c0-4.549,3.701-8.25,8.25-8.25
	c4.549,0,8.25,3.701,8.25,8.25v64.88C120.869,115.649,117.168,119.35,112.62,119.35z M112.62,42.445
	c-2.082,0-3.775,1.693-3.775,3.775v64.88c0,2.082,1.694,3.775,3.775,3.775c2.082,0,3.775-1.693,3.775-3.775V46.22
	C116.395,44.138,114.701,42.445,112.62,42.445z"/>
<path class="st2" d="M74.678,69.972c-1.175,0-2.161-0.917-2.231-2.105c-0.073-1.233,0.868-2.292,2.101-2.365
	c0.283-0.019,20.13-1.424,30.519-15.968c0.718-1.006,2.115-1.237,3.121-0.521c1.006,0.719,1.238,2.116,0.52,3.121
	C97.034,68.478,75.714,69.915,74.812,69.968C74.767,69.971,74.722,69.972,74.678,69.972z"/>
<path class="st2" d="M106.888,116.395c-0.698,0-1.386-0.326-1.822-0.937c-10.41-14.574-30.32-15.955-30.52-15.968
	c-1.232-0.075-2.172-1.135-2.097-2.367c0.074-1.233,1.145-2.197,2.363-2.099c0.902,0.052,22.222,1.49,33.895,17.834
	c0.718,1.005,0.486,2.402-0.52,3.121C107.793,116.26,107.338,116.395,106.888,116.395z"/>
<path class="st2" d="M32.296,88.662H24.45V77.457h6.949c1.236,0,2.237,1.002,2.237,2.237s-1.002,2.237-2.237,2.237h-2.474v2.256
	h3.372c1.236,0,2.237,1.002,2.237,2.237S33.532,88.662,32.296,88.662z"/>
<path class="st2" d="M73.012,130.388h-9.872c-3.151,0-5.715-2.564-5.715-5.715c0-3.151,2.564-5.714,5.715-5.714h9.872
	c3.151,0,5.715,2.564,5.715,5.714C78.727,127.824,76.163,130.388,73.012,130.388z M63.141,123.432c-0.672,0-1.24,0.568-1.24,1.24
	c0,0.673,0.568,1.241,1.24,1.241h9.872c0.672,0,1.24-0.568,1.24-1.241c0-0.672-0.568-1.24-1.24-1.24H63.141z"/>
<path class="st2" d="M74.131,122.359h-11.4v-21.784h11.4V122.359z M67.205,117.884h2.451v-12.835h-2.451V117.884z"/>
<path class="st2" d="M120.155,94.605c-0.718,0-1.424-0.345-1.856-0.985c-0.691-1.024-0.422-2.414,0.601-3.106
	c3.324-2.245,5.307-5.975,5.307-9.98c0-5.191-2.019-8.569-6.174-10.327c-1.138-0.481-1.671-1.794-1.19-2.932
	c0.482-1.137,1.797-1.669,2.932-1.189c5.826,2.463,8.906,7.459,8.906,14.447c0,5.494-2.721,10.611-7.277,13.688
	C121.021,94.48,120.585,94.605,120.155,94.605z"/>
<path class="st1" d="M133.11,114.816c-0.427,0-0.858-0.121-1.239-0.376c-1.028-0.685-1.306-2.074-0.62-3.102
	c0.08-0.12,8.182-12.587,8.182-32.04c0-12.587-8.089-27.99-8.171-28.144c-0.579-1.091-0.163-2.446,0.928-3.025
	c1.092-0.576,2.446-0.163,3.024,0.927c0.354,0.667,8.693,16.528,8.693,30.241c0,20.881-8.569,33.975-8.934,34.522
	C134.543,114.466,133.834,114.816,133.11,114.816z"/>
</svg>