<!-- Generator: Adobe Illustrator 19.2.1, SVG Export Plug-In  -->
<svg version="1.1"
	 xmlns="http://www.w3.org/2000/svg" xmlns:xlink="http://www.w3.org/1999/xlink" xmlns:a="http://ns.adobe.com/AdobeSVGViewerExtensions/3.0/"
	 x="0px" y="0px" width="1406.507px" height="90.72px" viewBox="0 0 1406.507 90.72"
	 style="enable-background:new 0 0 1406.507 90.72;" xml:space="preserve">
<style type="text/css">
	.st0{fill:#1A2042;}
</style>
<defs>
</defs>
<g>
	<g>
		<path class="st0" d="M56.428,76.499L24.569,44.551v31.948H6.84V9.002h7.2L45.988,40.86V9.002h17.729v67.497H56.428z"/>
		<path class="st0" d="M99.538,49.59c0,4.86,3.96,8.82,8.82,8.82c4.859,0,8.819-3.96,8.819-8.82V9.002h17.819V49.86
			c0,14.85-11.97,26.639-26.639,26.639c-14.85,0-26.64-11.789-26.64-26.639V9.002h17.819V49.59z"/>
		<path class="st0" d="M152.999,9.002h41.938v14.669h-24.209V34.65h21.42V49.59h-21.42v12.42h24.209v14.489h-41.938V9.002z"/>
		<path class="st0" d="M236.967,29.701c0-2.79-2.34-5.13-5.13-5.13s-5.039,2.34-5.039,5.13s2.249,5.039,5.039,5.039
			c6.57,0,12.51,3.15,16.29,8.01c2.88,3.601,4.499,8.1,4.499,13.05c0,11.52-9.27,20.699-20.789,20.699s-20.789-9.09-20.789-20.969
			h15.75c0,2.88,2.249,5.13,5.039,5.13s5.13-2.25,5.13-5.04s-2.34-5.13-5.13-5.13c-11.52,0-20.699-9.18-20.699-20.699
			s9.18-20.789,20.699-20.789s20.789,9.18,20.789,20.699H236.967z"/>
		<path class="st0" d="M268.288,8.912h53.188v17.639h-17.909v49.948h-17.729V26.551h-17.55V8.912z"/>
		<path class="st0" d="M377.366,76.499L366.927,58.59h-10.979v17.909h-17.729V9.002h28.438c13.68,0,24.84,11.159,24.84,24.839
			c0,7.199-3.15,13.68-8.01,18.179l14.31,24.479H377.366z M355.947,43.29h10.979c5.399,0,9.72-4.229,9.72-9.629
			c0-5.4-4.32-9.72-9.72-9.72h-10.979V43.29z"/>
		<path class="st0" d="M408.326,76.499l31.498-67.497h8.01l31.77,67.497h-17.729l-4.14-8.819h-27.629l-4.05,8.819H408.326z
			 M437.035,52.74h13.77l-6.84-14.85L437.035,52.74z"/>
		<path class="st0" d="M515.694,29.701c0-2.79-2.34-5.13-5.13-5.13s-5.039,2.34-5.039,5.13s2.249,5.039,5.039,5.039
			c6.57,0,12.51,3.15,16.29,8.01c2.88,3.601,4.499,8.1,4.499,13.05c0,11.52-9.27,20.699-20.789,20.699s-20.789-9.09-20.789-20.969
			h15.75c0,2.88,2.249,5.13,5.039,5.13s5.13-2.25,5.13-5.04s-2.34-5.13-5.13-5.13c-11.52,0-20.699-9.18-20.699-20.699
			s9.18-20.789,20.699-20.789s20.789,9.18,20.789,20.699H515.694z"/>
		<path class="st0" d="M611.185,9.002v24.029h21.419V9.002h17.729v67.497h-17.729V50.76h-21.419v25.739h-17.729V9.002H611.185z"/>
		<path class="st0" d="M668.425,9.002h41.938v14.669h-24.209V34.65h21.42V49.59h-21.42v12.42h24.209v14.489h-41.938V9.002z"/>
		<path class="st0" d="M766.702,76.499L756.263,58.59h-10.979v17.909h-17.729V9.002h28.438c13.68,0,24.84,11.159,24.84,24.839
			c0,7.199-3.15,13.68-8.01,18.179l14.31,24.479H766.702z M745.283,43.29h10.979c5.399,0,9.72-4.229,9.72-9.629
			c0-5.4-4.32-9.72-9.72-9.72h-10.979V43.29z"/>
		<path class="st0" d="M839.511,76.499L829.071,58.59h-10.979v17.909h-17.729V9.002h28.438c13.68,0,24.84,11.159,24.84,24.839
			c0,7.199-3.15,13.68-8.01,18.179l14.31,24.479H839.511z M818.092,43.29h10.979c5.399,0,9.72-4.229,9.72-9.629
			c0-5.4-4.32-9.72-9.72-9.72h-10.979V43.29z"/>
		<path class="st0" d="M870.471,76.499l31.498-67.497h8.01l31.769,67.497h-17.729l-4.14-8.819H892.25l-4.05,8.819H870.471z
			 M899.18,52.74h13.77l-6.84-14.85L899.18,52.74z"/>
		<path class="st0" d="M990.799,34.021l27.448-25.019h8.01v67.497h-17.819V41.851L990.799,57.96l-17.729-16.02v34.559H955.25V9.002
			h8.01L990.799,34.021z"/>
		<path class="st0" d="M1044.259,9.002h17.729v67.497h-17.729V9.002z"/>
		<path class="st0" d="M1080.077,9.002h41.938v14.669h-24.209V34.65h21.419V49.59h-21.419v12.42h24.209v14.489h-41.938V9.002z"/>
		<path class="st0" d="M1188.795,76.499l-31.858-31.948v31.948h-17.729V9.002h7.199l31.949,31.858V9.002h17.729v67.497H1188.795z"/>
		<path class="st0" d="M1212.735,8.912h53.188v17.639h-17.909v49.948h-17.729V26.551h-17.55V8.912z"/>
		<path class="st0" d="M1273.217,76.499l31.499-67.497h8.01l31.769,67.497h-17.729l-4.14-8.819h-27.629l-4.05,8.819H1273.217z
			 M1301.926,52.74h13.77l-6.84-14.85L1301.926,52.74z"/>
		<path class="st0" d="M1380.586,29.701c0-2.79-2.34-5.13-5.13-5.13s-5.04,2.34-5.04,5.13s2.25,5.039,5.04,5.039
			c6.57,0,12.51,3.15,16.289,8.01c2.88,3.601,4.5,8.1,4.5,13.05c0,11.52-9.27,20.699-20.789,20.699s-20.789-9.09-20.789-20.969
			h15.749c0,2.88,2.25,5.13,5.04,5.13s5.13-2.25,5.13-5.04s-2.34-5.13-5.13-5.13c-11.52,0-20.699-9.18-20.699-20.699
			s9.18-20.789,20.699-20.789s20.789,9.18,20.789,20.699H1380.586z"/>
	</g>
</g>
</svg>