<!-- Generator: Adobe Illustrator 19.2.1, SVG Export Plug-In  -->
<svg version="1.1"
	 xmlns="http://www.w3.org/2000/svg" xmlns:xlink="http://www.w3.org/1999/xlink" xmlns:a="http://ns.adobe.com/AdobeSVGViewerExtensions/3.0/"
	 x="0px" y="0px" width="225.157px" height="26.208px" viewBox="0 0 225.157 26.208"
	 style="enable-background:new 0 0 225.157 26.208;" xml:space="preserve">
<style type="text/css">
	.st0{fill:#0025FF;}
</style>
<defs>
</defs>
<g>
	<path class="st0" d="M12.247,9.827l7.93-7.229h2.314V22.1h-5.148V12.089l-5.096,4.654l-5.122-4.628V22.1H1.976V2.599H4.29
		L12.247,9.827z"/>
	<path class="st0" d="M37.7,2.599c5.382,0,9.75,4.395,9.75,9.776c0,5.383-4.368,9.725-9.75,9.725s-9.725-4.342-9.725-9.725
		C27.976,6.993,32.318,2.599,37.7,2.599z M37.7,7.695c-2.548,0-4.628,2.08-4.628,4.654c0,2.548,2.08,4.654,4.628,4.654
		c2.574,0,4.654-2.106,4.654-4.654C42.354,9.775,40.274,7.695,37.7,7.695z"/>
	<path class="st0" d="M70.72,2.573L61.646,22.1h-2.34l-9.1-19.526h5.148l5.122,11.103l5.148-11.103H70.72z"/>
	<path class="st0" d="M74.879,2.599h5.122V22.1h-5.122V2.599z"/>
	<path class="st0" d="M85.877,2.599h5.122v14.353h7.021V22.1H85.877V2.599z"/>
	<path class="st0" d="M103.609,2.599h5.122V22.1h-5.122V2.599z"/>
	<path class="st0" d="M122.146,16.978h7.541V22.1H113.28l8.294-14.353h-7.8V2.599h16.667L122.146,16.978z"/>
	<path class="st0" d="M133.716,22.1l9.1-19.501h2.314l9.179,19.501h-5.123l-1.196-2.548h-7.982l-1.17,2.548H133.716z M142.01,15.235
		h3.979l-1.977-4.29L142.01,15.235z"/>
	<path class="st0" d="M169.128,9.827l7.93-7.229h2.314V22.1h-5.148V12.089l-5.096,4.654l-5.122-4.628V22.1h-5.148V2.599h2.314
		L169.128,9.827z"/>
	<path class="st0" d="M194.582,2.599c5.382,0,9.75,4.395,9.75,9.776c0,5.383-4.368,9.725-9.75,9.725s-9.725-4.342-9.725-9.725
		C184.857,6.993,189.2,2.599,194.582,2.599z M194.582,7.695c-2.548,0-4.628,2.08-4.628,4.654c0,2.548,2.08,4.654,4.628,4.654
		c2.574,0,4.654-2.106,4.654-4.654C199.236,9.775,197.156,7.695,194.582,7.695z"/>
	<path class="st0" d="M217.02,8.579c0-0.806-0.676-1.482-1.482-1.482c-0.806,0-1.456,0.677-1.456,1.482s0.65,1.456,1.456,1.456
		c1.898,0,3.614,0.91,4.706,2.314c0.832,1.04,1.3,2.34,1.3,3.77c0,3.328-2.678,5.98-6.006,5.98s-6.006-2.626-6.006-6.059h4.55
		c0,0.832,0.65,1.482,1.456,1.482c0.806,0,1.482-0.65,1.482-1.456s-0.676-1.482-1.482-1.482c-3.328,0-5.98-2.651-5.98-5.979
		s2.652-6.007,5.98-6.007s6.006,2.652,6.006,5.98H217.02z"/>
</g>
</svg>