<!-- Generator: Adobe Illustrator 19.2.1, SVG Export Plug-In  -->
<svg version="1.1"
	 xmlns="http://www.w3.org/2000/svg" xmlns:xlink="http://www.w3.org/1999/xlink" xmlns:a="http://ns.adobe.com/AdobeSVGViewerExtensions/3.0/"
	 x="0px" y="0px" width="213.718px" height="26.208px" viewBox="0 0 213.718 26.208"
	 style="enable-background:new 0 0 213.718 26.208;" xml:space="preserve">
<style type="text/css">
	.st0{fill:#0025FF;}
</style>
<defs>
</defs>
<g>
	<path class="st0" d="M1.976,2.599h8.216c3.952,0,7.176,3.225,7.176,7.177c0,3.926-3.198,7.15-7.072,7.15H7.098V22.1H1.976V2.599z
		 M7.098,12.505h3.172c1.56,0,2.808-1.222,2.808-2.782c0-1.56-1.248-2.808-2.808-2.808H7.098V12.505z"/>
	<path class="st0" d="M33.385,22.1l-3.016-5.174h-3.172V22.1h-5.122V2.599h8.216c3.952,0,7.176,3.225,7.176,7.177
		c0,2.08-0.91,3.952-2.314,5.252l4.134,7.072H33.385z M27.196,12.505h3.172c1.56,0,2.808-1.222,2.808-2.782
		c0-1.56-1.248-2.808-2.808-2.808h-3.172V12.505z"/>
	<path class="st0" d="M52.572,2.599c5.382,0,9.75,4.395,9.75,9.776c0,5.383-4.368,9.725-9.75,9.725s-9.725-4.342-9.725-9.725
		C42.848,6.993,47.19,2.599,52.572,2.599z M52.572,7.695c-2.548,0-4.628,2.08-4.628,4.654c0,2.548,2.08,4.654,4.628,4.654
		c2.574,0,4.654-2.106,4.654-4.654C57.226,9.775,55.146,7.695,52.572,7.695z"/>
	<path class="st0" d="M67.158,2.573h15.367v5.096H77.35V22.1h-5.122V7.669h-5.07V2.573z"/>
	<path class="st0" d="M88.01,2.599h12.117v4.238h-6.995v3.172h6.188v4.316h-6.188v3.588h6.995V22.1H88.01V2.599z"/>
	<path class="st0" d="M124.93,11.621v0.729c0,5.382-4.368,9.75-9.75,9.75c-5.382,0-9.725-4.368-9.725-9.75
		c0-5.383,4.342-9.751,9.725-9.751c2.678,0,5.096,1.093,6.864,2.834l-3.614,3.589c-0.832-0.78-1.924-1.301-3.25-1.301
		c-2.444,0-4.603,1.95-4.603,4.629c0,2.678,2.21,4.628,4.603,4.628c1.534,0,2.964-0.754,3.77-1.924h-3.77v-3.433H124.93z"/>
	<path class="st0" d="M129.688,2.599h12.117v4.238h-6.995v3.172h6.188v4.316h-6.188v3.588h6.995V22.1h-12.117V2.599z"/>
	<path class="st0" d="M157.69,9.827l7.93-7.229h2.314V22.1h-5.148V12.089l-5.096,4.654l-5.122-4.628V22.1h-5.148V2.599h2.314
		L157.69,9.827z"/>
	<path class="st0" d="M183.144,2.599c5.382,0,9.75,4.395,9.75,9.776c0,5.383-4.368,9.725-9.75,9.725s-9.725-4.342-9.725-9.725
		C173.419,6.993,177.761,2.599,183.144,2.599z M183.144,7.695c-2.548,0-4.628,2.08-4.628,4.654c0,2.548,2.08,4.654,4.628,4.654
		c2.574,0,4.654-2.106,4.654-4.654C187.797,9.775,185.717,7.695,183.144,7.695z"/>
	<path class="st0" d="M205.581,8.579c0-0.806-0.676-1.482-1.482-1.482c-0.806,0-1.456,0.677-1.456,1.482s0.65,1.456,1.456,1.456
		c1.898,0,3.614,0.91,4.706,2.314c0.832,1.04,1.3,2.34,1.3,3.77c0,3.328-2.678,5.98-6.006,5.98s-6.006-2.626-6.006-6.059h4.55
		c0,0.832,0.65,1.482,1.456,1.482c0.806,0,1.482-0.65,1.482-1.456s-0.676-1.482-1.482-1.482c-3.328,0-5.98-2.651-5.98-5.979
		s2.652-6.007,5.98-6.007s6.006,2.652,6.006,5.98H205.581z"/>
</g>
</svg>