<!-- Generator: Adobe Illustrator 19.2.1, SVG Export Plug-In  -->
<svg version="1.1"
	 xmlns="http://www.w3.org/2000/svg" xmlns:xlink="http://www.w3.org/1999/xlink" xmlns:a="http://ns.adobe.com/AdobeSVGViewerExtensions/3.0/"
	 x="0px" y="0px" width="200.691px" height="26.208px" viewBox="0 0 200.691 26.208"
	 style="enable-background:new 0 0 200.691 26.208;" xml:space="preserve">
<style type="text/css">
	.st0{fill:#0025FF;}
</style>
<defs>
</defs>
<g>
	<path class="st0" d="M1.976,2.599h5.122v14.353h7.021V22.1H1.976V2.599z"/>
	<path class="st0" d="M19.734,2.599H31.85v4.238h-6.994v3.172h6.188v4.316h-6.188v3.588h6.994V22.1H19.734V2.599z"/>
	<path class="st0" d="M56.655,11.621v0.729c0,5.382-4.368,9.75-9.75,9.75s-9.725-4.368-9.725-9.75c0-5.383,4.342-9.751,9.725-9.751
		c2.678,0,5.096,1.093,6.864,2.834l-3.614,3.589c-0.832-0.78-1.924-1.301-3.25-1.301c-2.444,0-4.602,1.95-4.602,4.629
		c0,2.678,2.21,4.628,4.602,4.628c1.534,0,2.964-0.754,3.77-1.924h-3.77v-3.433H56.655z"/>
	<path class="st0" d="M61.386,2.599h5.122V22.1h-5.122V2.599z"/>
	<path class="st0" d="M79.923,16.978h7.54V22.1H71.057l8.294-14.353h-7.8V2.599h16.667L79.923,16.978z"/>
	<path class="st0" d="M92.793,2.599h5.122v14.353h7.021V22.1H92.793V2.599z"/>
	<path class="st0" d="M109.25,22.1l9.1-19.501h2.314l9.179,19.501h-5.123l-1.196-2.548h-7.982l-1.17,2.548H109.25z M117.544,15.235
		h3.979l-1.977-4.29L117.544,15.235z"/>
	<path class="st0" d="M144.663,9.827l7.93-7.229h2.314V22.1h-5.148V12.089l-5.096,4.654l-5.122-4.628V22.1h-5.148V2.599h2.314
		L144.663,9.827z"/>
	<path class="st0" d="M170.117,2.599c5.382,0,9.75,4.395,9.75,9.776c0,5.383-4.368,9.725-9.75,9.725
		c-5.382,0-9.725-4.342-9.725-9.725C160.392,6.993,164.734,2.599,170.117,2.599z M170.117,7.695c-2.548,0-4.628,2.08-4.628,4.654
		c0,2.548,2.08,4.654,4.628,4.654c2.574,0,4.654-2.106,4.654-4.654C174.771,9.775,172.691,7.695,170.117,7.695z"/>
	<path class="st0" d="M192.554,8.579c0-0.806-0.676-1.482-1.482-1.482c-0.806,0-1.456,0.677-1.456,1.482s0.65,1.456,1.456,1.456
		c1.898,0,3.614,0.91,4.706,2.314c0.832,1.04,1.3,2.34,1.3,3.77c0,3.328-2.678,5.98-6.006,5.98s-6.006-2.626-6.006-6.059h4.55
		c0,0.832,0.65,1.482,1.456,1.482c0.806,0,1.482-0.65,1.482-1.456s-0.676-1.482-1.482-1.482c-3.328,0-5.98-2.651-5.98-5.979
		s2.652-6.007,5.98-6.007s6.006,2.652,6.006,5.98H192.554z"/>
</g>
</svg>