<!-- Generator: Adobe Illustrator 19.2.1, SVG Export Plug-In  -->
<svg version="1.1"
	 xmlns="http://www.w3.org/2000/svg" xmlns:xlink="http://www.w3.org/1999/xlink" xmlns:a="http://ns.adobe.com/AdobeSVGViewerExtensions/3.0/"
	 x="0px" y="0px" width="1121.926px" height="90.72px" viewBox="0 0 1121.926 90.72"
	 style="enable-background:new 0 0 1121.926 90.72;" xml:space="preserve">
<style type="text/css">
	.st0{fill:#FFFFFF;}
</style>
<defs>
</defs>
<g>
	<g>
		<path class="st0" d="M45.988,76.499L35.549,58.59H24.569v17.909H6.84V9.002h28.438c13.68,0,24.84,11.159,24.84,24.839
			c0,7.199-3.15,13.68-8.01,18.179l14.31,24.479H45.988z M24.569,43.29h10.979c5.399,0,9.72-4.229,9.72-9.629
			c0-5.4-4.32-9.72-9.72-9.72H24.569V43.29z"/>
		<path class="st0" d="M79.649,9.002h41.938v14.669H97.378V34.65h21.42V49.59h-21.42v12.42h24.209v14.489H79.649V9.002z"/>
		<path class="st0" d="M138.778,9.002h25.02c18.629,0,33.748,15.119,33.748,33.748c0,18.63-15.119,33.749-33.748,33.749h-25.02
			V9.002z M156.418,58.859h7.47c8.819,0,16.02-7.199,16.02-16.019c0-8.73-7.2-15.93-16.02-15.93h-7.47V58.859z"/>
		<path class="st0" d="M259.196,9.002h17.729v67.497h-17.729V9.002z"/>
		<path class="st0" d="M344.604,76.499l-31.859-31.948v31.948h-17.729V9.002h7.199l31.949,31.858V9.002h17.729v67.497H344.604z"/>
		<path class="st0" d="M368.545,8.912h53.188v17.639h-17.909v49.948h-17.729V26.551h-17.549V8.912z"/>
		<path class="st0" d="M438.475,9.002h41.938v14.669h-24.209V34.65h21.42V49.59h-21.42v12.42h24.209v14.489h-41.938V9.002z"/>
		<path class="st0" d="M536.753,76.499l-10.44-17.909h-10.979v17.909h-17.729V9.002h28.438c13.68,0,24.839,11.159,24.839,24.839
			c0,7.199-3.149,13.68-8.01,18.179l14.31,24.479H536.753z M515.333,43.29h10.979c5.4,0,9.72-4.229,9.72-9.629
			c0-5.4-4.319-9.72-9.72-9.72h-10.979V43.29z"/>
		<path class="st0" d="M620.001,76.499l-31.859-31.948v31.948h-17.729V9.002h7.199l31.949,31.858V9.002h17.729v67.497H620.001z"/>
		<path class="st0" d="M640.882,76.499l31.499-67.497h8.01l31.769,67.497H694.43l-4.14-8.819h-27.629l-4.05,8.819H640.882z
			 M669.591,52.74h13.77l-6.84-14.85L669.591,52.74z"/>
		<path class="st0" d="M765.08,31.321c-2.79-2.79-6.75-4.41-11.34-4.41c-9.18,0-15.84,6.659-15.84,15.839s6.66,15.84,15.84,15.84
			c4.59,0,8.55-1.62,11.34-4.5l12.599,12.42c-6.119,6.119-14.579,9.989-23.938,9.989c-18.629,0-33.749-15.119-33.749-33.749
			c0-18.629,15.12-33.748,33.749-33.748c9.27,0,17.64,3.689,23.759,9.81L765.08,31.321z"/>
		<path class="st0" d="M795.591,9.002h17.729v67.497h-17.729V9.002z"/>
		<path class="st0" d="M863.719,9.002c18.629,0,33.748,15.209,33.748,33.839c0,18.629-15.119,33.658-33.748,33.658
			c-18.63,0-33.659-15.029-33.659-33.658C830.06,24.211,845.089,9.002,863.719,9.002z M863.719,26.641
			c-8.82,0-16.02,7.2-16.02,16.109c0,8.82,7.199,16.109,16.02,16.109c8.909,0,16.109-7.289,16.109-16.109
			C879.828,33.841,872.628,26.641,863.719,26.641z"/>
		<path class="st0" d="M963.886,76.499l-31.858-31.948v31.948h-17.729V9.002h7.199l31.948,31.858V9.002h17.729v67.497H963.886z"/>
		<path class="st0" d="M984.768,76.499l31.499-67.497h8.01l31.769,67.497h-17.729l-4.14-8.819h-27.629l-4.05,8.819H984.768z
			 M1013.477,52.74h13.77l-6.84-14.85L1013.477,52.74z"/>
		<path class="st0" d="M1069.547,9.002h17.729V58.68h24.299v17.819h-42.028V9.002z"/>
	</g>
</g>
</svg>