<!-- Generator: Adobe Illustrator 19.2.1, SVG Export Plug-In  -->
<svg version="1.1"
	 xmlns="http://www.w3.org/2000/svg" xmlns:xlink="http://www.w3.org/1999/xlink" xmlns:a="http://ns.adobe.com/AdobeSVGViewerExtensions/3.0/"
	 x="0px" y="0px" width="577.845px" height="350.161px" viewBox="0 0 577.845 350.161"
	 style="enable-background:new 0 0 577.845 350.161;" xml:space="preserve">
<style type="text/css">
	.st0{fill:#1A2042;}
</style>
<defs>
</defs>
<g>
	<path class="st0" d="M57.439,35.752c-3.186-3.186-7.707-5.035-12.947-5.035c-10.48,0-18.084,7.604-18.084,18.085
		s7.604,18.084,18.084,18.084c5.241,0,9.762-1.849,12.947-5.137l14.385,14.18c-6.987,6.987-16.646,11.405-27.333,11.405
		c-21.27,0-38.532-17.263-38.532-38.532S23.222,10.27,44.492,10.27c10.583,0,20.14,4.213,27.127,11.2L57.439,35.752z"/>
	<path class="st0" d="M127.716,10.27c21.27,0,38.532,17.365,38.532,38.635s-17.262,38.43-38.532,38.43
		c-21.27,0-38.429-17.16-38.429-38.43S106.447,10.27,127.716,10.27z M127.716,30.409c-10.07,0-18.29,8.22-18.29,18.393
		c0,10.069,8.22,18.393,18.29,18.393c10.173,0,18.393-8.323,18.393-18.393C146.109,38.629,137.889,30.409,127.716,30.409z"/>
	<path class="st0" d="M226.044,38.835l31.339-28.565h9.145v77.064h-20.345v-39.56l-20.14,18.393l-20.242-18.29v39.457h-20.345V10.27
		h9.145L226.044,38.835z"/>
	<path class="st0" d="M324.063,10.27c21.27,0,38.532,17.365,38.532,38.635s-17.262,38.43-38.532,38.43
		c-21.27,0-38.429-17.16-38.429-38.43S302.794,10.27,324.063,10.27z M324.063,30.409c-10.07,0-18.29,8.22-18.29,18.393
		c0,10.069,8.22,18.393,18.29,18.393c10.173,0,18.393-8.323,18.393-18.393C342.457,38.629,334.236,30.409,324.063,30.409z"/>
	<path class="st0" d="M82.1,133.464l-35.861,77.167h-9.248L1.027,133.464h20.345l20.242,43.875l20.345-43.875H82.1z"/>
	<path class="st0" d="M83.739,210.631l35.963-77.064h9.145l36.272,77.064h-20.242l-4.727-10.069h-31.545l-4.624,10.069H83.739z
		 M116.517,183.504h15.721l-7.809-16.954L116.517,183.504z"/>
	<path class="st0" d="M221.114,162.132l31.339-28.565h9.145v77.064h-20.345v-39.56l-20.14,18.393l-20.242-18.29v39.457h-20.345
		v-77.064h9.145L221.114,162.132z"/>
	<path class="st0" d="M319.133,133.566c21.27,0,38.532,17.365,38.532,38.635s-17.262,38.43-38.532,38.43
		c-21.27,0-38.429-17.16-38.429-38.43S297.863,133.566,319.133,133.566z M319.133,153.706c-10.07,0-18.29,8.22-18.29,18.393
		c0,10.069,8.22,18.393,18.29,18.393c10.173,0,18.393-8.323,18.393-18.393C337.526,161.926,329.306,153.706,319.133,153.706z"/>
	<path class="st0" d="M405.233,157.199c0-3.186-2.671-5.856-5.857-5.856c-3.185,0-5.754,2.671-5.754,5.856s2.569,5.755,5.754,5.755
		c7.501,0,14.283,3.596,18.598,9.145c3.288,4.11,5.138,9.248,5.138,14.899c0,13.152-10.583,23.633-23.736,23.633
		s-23.736-10.378-23.736-23.941h17.982c0,3.288,2.569,5.856,5.754,5.856c3.186,0,5.857-2.568,5.857-5.754s-2.671-5.856-5.857-5.856
		c-13.152,0-23.633-10.481-23.633-23.634s10.481-23.735,23.633-23.735s23.736,10.48,23.736,23.633H405.233z"/>
	<path class="st0" d="M488.867,210.631l35.963-77.064h9.145l36.272,77.064h-20.242l-4.727-10.069h-31.545l-4.624,10.069H488.867z
		 M521.645,183.504h15.721l-7.809-16.954L521.645,183.504z"/>
	<path class="st0" d="M28.051,256.862v27.435h24.456v-27.435h20.242v77.064H52.507v-29.388H28.051v29.388H7.809v-77.064H28.051z"/>
	<path class="st0" d="M88.259,333.927l35.964-77.064h9.145l36.272,77.064h-20.242l-4.727-10.069h-31.545l-4.624,10.069H88.259z
		 M121.037,306.8h15.721l-7.809-16.954L121.037,306.8z"/>
	<path class="st0" d="M230.053,282.345c-3.186-3.186-7.707-5.035-12.947-5.035c-10.48,0-18.084,7.604-18.084,18.085
		s7.604,18.084,18.084,18.084c5.241,0,9.762-1.849,12.947-5.137l14.385,14.18c-6.987,6.987-16.646,11.405-27.333,11.405
		c-21.27,0-38.532-17.263-38.532-38.532s17.263-38.532,38.532-38.532c10.584,0,20.14,4.213,27.127,11.2L230.053,282.345z"/>
	<path class="st0" d="M264.983,256.862h47.883v16.749h-27.641v12.535h24.456v17.058h-24.456v14.18h27.641v16.543h-47.883V256.862z"
		/>
	<path class="st0" d="M377.186,333.927l-11.919-20.448H352.73v20.448h-20.242v-77.064h32.47c15.618,0,28.359,12.741,28.359,28.359
		c0,8.221-3.596,15.619-9.145,20.756l16.338,27.949H377.186z M352.73,296.011h12.536c6.165,0,11.097-4.829,11.097-10.994
		s-4.932-11.098-11.097-11.098H352.73V296.011z"/>
	<path class="st0" d="M415.609,256.862h20.242v56.72h27.744v20.345h-47.986V256.862z"/>
	<path class="st0" d="M517.021,256.862c21.27,0,38.532,17.365,38.532,38.635s-17.262,38.43-38.532,38.43
		c-21.27,0-38.429-17.16-38.429-38.43S495.751,256.862,517.021,256.862z M517.021,277.002c-10.07,0-18.29,8.22-18.29,18.393
		c0,10.069,8.22,18.393,18.29,18.393c10.173,0,18.393-8.323,18.393-18.393C535.414,285.222,527.194,277.002,517.021,277.002z"/>
</g>
</svg>