<!-- Generator: Adobe Illustrator 19.2.1, SVG Export Plug-In  -->
<svg version="1.1"
	 xmlns="http://www.w3.org/2000/svg" xmlns:xlink="http://www.w3.org/1999/xlink" xmlns:a="http://ns.adobe.com/AdobeSVGViewerExtensions/3.0/"
	 x="0px" y="0px" width="168.358px" height="168.358px" viewBox="0 0 168.358 168.358"
	 style="enable-background:new 0 0 168.358 168.358;" xml:space="preserve">
<style type="text/css">
	.st0{fill:#00F8FF;}
	.st1{fill:#FFFFFF;}
	.st2{fill:#1D1D1B;}
</style>
<defs>
</defs>
<circle class="st0" cx="84.179" cy="84.179" r="84.179"/>
<path class="st1" d="M62.208,80.474c-0.064,0-0.131-0.002-0.197-0.009c-1.231-0.107-2.142-1.192-2.034-2.423
	c0.066-0.754,1.699-18.598,9.159-30.103c11.361-17.52,25.675-23.845,26.278-24.105c1.135-0.489,2.451,0.032,2.941,1.167
	c0.49,1.135-0.033,2.451-1.167,2.941c-0.133,0.058-13.713,6.11-24.298,22.431c-6.859,10.58-8.44,27.885-8.455,28.058
	C64.333,79.596,63.356,80.474,62.208,80.474z"/>
<path class="st2" d="M83.758,112.063H65.114c-3.804,0-6.899-3.094-6.899-6.897c0-3.804,3.095-6.899,6.899-6.899h18.644
	c3.804,0,6.897,3.095,6.897,6.899C90.655,108.969,87.562,112.063,83.758,112.063z M65.114,102.741c-1.337,0-2.424,1.087-2.424,2.424
	c0,1.336,1.087,2.423,2.424,2.423h18.644c1.336,0,2.423-1.087,2.423-2.423c0-1.337-1.087-2.424-2.423-2.424H65.114z"/>
<g>
	<path class="st1" d="M84.876,109.826H65.114c0,0-6.525,10.441-6.525,15.661c0,5.221,5.593,7.085,5.593,7.085h10.44h0.746h10.44
		c0,0,5.593-1.864,5.593-7.085C91.402,120.267,84.876,109.826,84.876,109.826z"/>
	<path class="st2" d="M86.171,134.809H63.819l-0.345-0.115c-0.291-0.097-7.122-2.452-7.122-9.208c0-5.697,6.162-15.722,6.865-16.846
		l0.658-1.052h22.242l0.658,1.052c0.702,1.124,6.865,11.149,6.865,16.846c0,6.755-6.832,9.111-7.122,9.208L86.171,134.809z
		 M64.597,130.335h20.795c0.935-0.4,3.772-1.857,3.772-4.848c0-3.05-3.173-9.429-5.545-13.423H66.371
		c-2.372,3.997-5.545,10.379-5.545,13.423C60.826,128.483,63.665,129.938,64.597,130.335z"/>
</g>
<path class="st2" d="M75.46,103.012c-0.087,0-0.176-0.004-0.264-0.015c-1.228-0.144-2.105-1.256-1.961-2.483
	c0.188-1.6,5.092-39.536,47.132-70.904c0.993-0.741,2.392-0.534,3.131,0.454c0.74,0.991,0.535,2.392-0.454,3.131
	c-40.512,30.228-45.321,67.468-45.364,67.841C77.544,102.174,76.579,103.012,75.46,103.012z"/>
<path class="st2" d="M75.452,94.98c-0.948,0-1.828-0.606-2.129-1.559c-0.429-1.359-9.962-33.574,39.341-58.554
	c1.104-0.557,2.449-0.116,3.007,0.984c0.558,1.102,0.118,2.449-0.984,3.007c-45.74,23.175-37.47,52.005-37.095,53.221
	c0.363,1.178-0.294,2.431-1.47,2.798C75.899,94.947,75.674,94.98,75.452,94.98z"/>
<path class="st2" d="M78.347,97.875c-0.915,0-1.775-0.567-2.104-1.478c-0.419-1.16,0.179-2.439,1.337-2.862
	c0.149-0.056,10.871-4.182,18.028-18.795c3.204-6.541,4.031-12.145,4.762-17.09c1.012-6.849,1.885-12.765,8.362-18.027
	c0.956-0.78,2.368-0.636,3.146,0.326c0.78,0.958,0.634,2.367-0.326,3.146c-5.126,4.165-5.809,8.798-6.757,15.21
	c-0.778,5.268-1.66,11.236-5.17,18.404C91.612,93.07,79.614,97.558,79.107,97.74C78.856,97.831,78.599,97.875,78.347,97.875z"/>
</svg>