<!-- Generator: Adobe Illustrator 19.2.1, SVG Export Plug-In  -->
<svg version="1.1"
	 xmlns="http://www.w3.org/2000/svg" xmlns:xlink="http://www.w3.org/1999/xlink" xmlns:a="http://ns.adobe.com/AdobeSVGViewerExtensions/3.0/"
	 x="0px" y="0px" width="421.464px" height="350.161px" viewBox="0 0 421.464 350.161"
	 style="enable-background:new 0 0 421.464 350.161;" xml:space="preserve">
<style type="text/css">
	.st0{fill:#1A2042;}
</style>
<defs>
</defs>
<g>
	<g>
		<path class="st0" d="M36.169,33.902c0-3.186-2.671-5.856-5.857-5.856c-3.185,0-5.754,2.671-5.754,5.856s2.569,5.755,5.754,5.755
			c7.501,0,14.283,3.596,18.598,9.145c3.288,4.11,5.138,9.248,5.138,14.899c0,13.152-10.583,23.633-23.736,23.633
			S6.576,76.956,6.576,63.393h17.982c0,3.288,2.569,5.856,5.754,5.856c3.186,0,5.857-2.568,5.857-5.754s-2.671-5.856-5.857-5.856
			c-13.152,0-23.633-10.481-23.633-23.634S17.16,10.27,30.312,10.27s23.736,10.48,23.736,23.633H36.169z"/>
		<path class="st0" d="M109.428,10.27c21.27,0,38.532,17.365,38.532,38.635s-17.262,38.43-38.532,38.43
			c-21.27,0-38.429-17.16-38.429-38.43S88.159,10.27,109.428,10.27z M109.428,30.409c-10.07,0-18.29,8.22-18.29,18.393
			c0,10.069,8.22,18.393,18.29,18.393c10.173,0,18.393-8.323,18.393-18.393C127.821,38.629,119.601,30.409,109.428,30.409z"/>
		<path class="st0" d="M207.756,38.835l31.339-28.565h9.145v77.064h-20.345v-39.56l-20.14,18.393l-20.242-18.29v39.457h-20.345
			V10.27h9.145L207.756,38.835z"/>
		<path class="st0" d="M305.775,10.27c21.27,0,38.532,17.365,38.532,38.635s-17.262,38.43-38.532,38.43
			c-21.27,0-38.429-17.16-38.429-38.43S284.506,10.27,305.775,10.27z M305.775,30.409c-10.07,0-18.29,8.22-18.29,18.393
			c0,10.069,8.22,18.393,18.29,18.393c10.173,0,18.393-8.323,18.393-18.393C324.168,38.629,315.948,30.409,305.775,30.409z"/>
		<path class="st0" d="M391.875,33.902c0-3.186-2.671-5.856-5.857-5.856s-5.754,2.671-5.754,5.856s2.568,5.755,5.754,5.755
			c7.501,0,14.283,3.596,18.598,9.145c3.288,4.11,5.138,9.248,5.138,14.899c0,13.152-10.583,23.633-23.736,23.633
			s-23.736-10.378-23.736-23.941h17.982c0,3.288,2.568,5.856,5.754,5.856s5.857-2.568,5.857-5.754s-2.671-5.856-5.857-5.856
			c-13.152,0-23.633-10.481-23.633-23.634s10.481-23.735,23.633-23.735s23.736,10.48,23.736,23.633H391.875z"/>
		<path class="st0" d="M28.051,179.908c0,5.548,4.521,10.069,10.07,10.069c5.549,0,10.07-4.521,10.07-10.069v-46.342h20.345v46.649
			c0,16.954-13.666,30.415-30.415,30.415c-16.954,0-30.415-13.461-30.415-30.415v-46.649h20.345V179.908z"/>
		<path class="st0" d="M145.698,210.631l-36.375-36.478v36.478H89.082v-77.064h8.22l36.478,36.374v-36.374h20.242v77.064H145.698z"
			/>
		<path class="st0" d="M169.531,210.631l35.964-77.064h9.145l36.272,77.064h-20.242l-4.727-10.069h-31.545l-4.624,10.069H169.531z
			 M202.31,183.504h15.721l-7.809-16.954L202.31,183.504z"/>
		<path class="st0" d="M52.507,333.927l-11.919-20.448H28.051v20.448H7.809v-77.064h32.47c15.618,0,28.359,12.741,28.359,28.359
			c0,8.221-3.596,15.619-9.145,20.756l16.338,27.949H52.507z M28.051,296.011h12.536c6.165,0,11.097-4.829,11.097-10.994
			s-4.932-11.098-11.097-11.098H28.051V296.011z"/>
		<path class="st0" d="M90.93,256.862h47.883v16.749h-27.641v12.535h24.456v17.058h-24.456v14.18h27.641v16.543H90.93V256.862z"/>
		<path class="st0" d="M158.435,256.862H187c21.27,0,38.532,17.263,38.532,38.532S208.27,333.927,187,333.927h-28.565V256.862z
			 M178.574,313.787h8.528c10.07,0,18.29-8.22,18.29-18.29c0-9.967-8.22-18.188-18.29-18.188h-8.528V313.787z"/>
	</g>
</g>
</svg>