<!-- Generator: Adobe Illustrator 19.2.1, SVG Export Plug-In  -->
<svg version="1.1"
	 xmlns="http://www.w3.org/2000/svg" xmlns:xlink="http://www.w3.org/1999/xlink" xmlns:a="http://ns.adobe.com/AdobeSVGViewerExtensions/3.0/"
	 x="0px" y="0px" width="168.358px" height="168.358px" viewBox="0 0 168.358 168.358"
	 style="enable-background:new 0 0 168.358 168.358;" xml:space="preserve">
<style type="text/css">
	.st0{fill:#00F8FF;}
	.st1{fill:#FFFFFF;}
	.st2{fill:#1D1D1B;}
</style>
<defs>
</defs>
<circle class="st0" cx="84.179" cy="84.179" r="84.179"/>
<g>
	<path class="st1" d="M135.951,75.875c-1.1,0-2.058-0.812-2.213-1.931c-0.02-0.143-2.223-14.848-15.122-29.41
		c-8.361-9.438-24.614-15.586-24.777-15.648c-1.158-0.433-1.745-1.722-1.312-2.878c0.433-1.158,1.726-1.745,2.878-1.312
		c0.709,0.264,17.466,6.607,26.56,16.871c13.846,15.631,16.116,31.114,16.206,31.765c0.168,1.225-0.687,2.353-1.911,2.522
		C136.156,75.868,136.053,75.875,135.951,75.875z"/>
	<path class="st2" d="M67.532,135.551c-1.236,0-2.237-1.002-2.237-2.237v-18.158l0.059-0.252c0.044-0.199,1.103-5.297-3.185-9.893
		c-5.232-5.604-13.936-16.834-14.303-17.309c-0.253-0.32-6.445-8.332-1.682-16.99c3.865-7.03,9.875-15.183,10.855-16.499
		c1.714-3.419,6.465-8.749,12.937-5.701c6.308,2.968,13.465,8.944,14.235,9.594c2.634,1.973,6.605,7.284,3.189,13.627
		c-0.854,1.588-2.191,2.609-3.865,2.949c-4.139,0.853-9.027-2.946-9.569-3.382l-0.185-0.165c-0.761-0.75-2.286-1.737-3.145-1.71
		c-0.116,0.008-0.31,0.021-0.591,0.382c-2.511,3.228-4.326,6.123-4.343,6.151c-0.654,1.048-2.036,1.367-3.083,0.712
		c-1.048-0.654-1.367-2.035-0.712-3.083c0.079-0.126,1.955-3.12,4.607-6.528c0.994-1.279,2.326-2.006,3.847-2.101
		c3.045-0.179,5.84,2.298,6.479,2.909c1.512,1.177,4.343,2.74,5.804,2.428c0.261-0.054,0.541-0.174,0.817-0.686
		c2.482-4.609-1.782-7.815-1.964-7.948l-0.125-0.098c-0.072-0.062-7.311-6.185-13.301-9.004c-4.159-1.954-6.81,3.199-7.098,3.793
		l-0.227,0.374c-0.066,0.088-6.666,8.913-10.641,16.141c-3.349,6.087,1.24,12.019,1.286,12.078
		c0.103,0.131,8.96,11.56,14.049,17.013c5.368,5.752,4.592,12.212,4.33,13.675v17.681C69.769,134.549,68.768,135.551,67.532,135.551
		z"/>
	<path class="st2" d="M98.099,91.483c-1.735,0-3.478-0.598-4.893-1.817v-0.001l-3.326-2.871c-1.516-1.308-2.433-3.128-2.579-5.126
		c-0.147-1.997,0.493-3.933,1.801-5.449l13.586-15.749c2.703-3.128,7.445-3.476,10.576-0.779l3.327,2.871
		c3.13,2.7,3.478,7.445,0.779,10.576l-13.588,15.749C102.3,90.602,100.205,91.483,98.099,91.483z M96.129,86.279
		c1.263,1.088,3.176,0.945,4.264-0.315l13.588-15.749c1.089-1.262,0.948-3.176-0.314-4.264l-3.327-2.871
		c-1.261-1.088-3.175-0.948-4.265,0.314L92.489,79.143c-0.529,0.612-0.787,1.392-0.728,2.197c0.06,0.806,0.429,1.539,1.041,2.067
		L96.129,86.279z"/>
	<path class="st2" d="M85.04,64.48c-0.497,0-0.997-0.165-1.412-0.504c-0.958-0.78-1.101-2.189-0.32-3.147l9.52-11.68
		c1.128-1.31,0.988-3.224-0.274-4.312l-3.327-2.871c-1.262-1.088-3.175-0.949-4.265,0.314l-9.744,11.9
		c-0.782,0.955-2.192,1.095-3.148,0.312c-0.956-0.782-1.096-2.192-0.312-3.148L81.538,39.4c2.739-3.172,7.482-3.52,10.612-0.823
		l3.327,2.871c3.13,2.7,3.478,7.445,0.779,10.576l-9.481,11.632C86.333,64.199,85.689,64.48,85.04,64.48z"/>
	<path class="st2" d="M87.668,81.053c-1.736,0-3.479-0.598-4.893-1.819c-0.935-0.806-1.039-2.22-0.232-3.155
		c0.807-0.935,2.22-1.039,3.155-0.232c1.262,1.087,3.173,0.949,4.265-0.315l13.586-15.749c0.529-0.612,0.787-1.392,0.728-2.197
		c-0.06-0.805-0.429-1.538-1.041-2.066l-3.327-2.871c-0.612-0.529-1.384-0.787-2.197-0.726c-0.805,0.06-1.539,0.429-2.066,1.04
		l-9.102,10.549c-0.807,0.935-2.221,1.038-3.156,0.233c-0.935-0.807-1.04-2.22-0.233-3.156l9.102-10.549
		c1.309-1.516,3.129-2.432,5.127-2.579c2.008-0.142,3.933,0.494,5.448,1.8l3.327,2.871c1.516,1.309,2.433,3.129,2.579,5.127
		c0.147,1.997-0.493,3.933-1.801,5.448L93.351,78.456C91.87,80.172,89.775,81.053,87.668,81.053z"/>
	<path class="st2" d="M106.038,101.694c-1.736,0-3.478-0.598-4.893-1.817v-0.001l-1.849-1.596c-1.516-1.308-2.433-3.128-2.579-5.126
		c-0.147-1.997,0.493-3.933,1.801-5.449L109.307,75.2c2.7-3.13,7.441-3.48,10.576-0.779l1.849,1.597
		c1.516,1.308,2.432,3.128,2.579,5.126c0.146,1.997-0.493,3.932-1.8,5.448l-10.79,12.507
		C110.24,100.813,108.144,101.694,106.038,101.694z M104.069,96.488c1.26,1.088,3.175,0.947,4.265-0.314l10.789-12.507
		c0.528-0.611,0.785-1.391,0.726-2.197c-0.06-0.805-0.429-1.539-1.04-2.066l-1.849-1.597c-1.264-1.09-3.177-0.947-4.264,0.315
		l-10.79,12.506c-0.529,0.612-0.787,1.392-0.728,2.197c0.06,0.806,0.429,1.539,1.041,2.067L104.069,96.488z"/>
	<path class="st2" d="M101.743,136.949c-1.236,0-2.237-1.002-2.237-2.237V116.89l7.696-6.465c0.328-0.355,2.186-2.469,2.378-4.969
		c0.28-3.631,0.823-8.538,0.847-8.745c0.135-1.228,1.25-2.111,2.47-1.976c1.228,0.135,2.113,1.242,1.976,2.47
		c-0.005,0.05-0.558,5.039-0.831,8.594c-0.34,4.41-3.586,7.705-3.725,7.842l-0.143,0.131l-6.193,5.202v15.737
		C103.98,135.947,102.978,136.949,101.743,136.949z"/>
	<path class="st2" d="M87.482,114.017c-0.028,0-0.057,0-0.085-0.001c-1.234-0.047-2.198-1.085-2.152-2.32
		c0.771-20.559-12.997-26.308-13.137-26.363c-1.147-0.46-1.705-1.761-1.246-2.909c0.459-1.147,1.757-1.702,2.909-1.246
		c0.687,0.275,16.834,7.011,15.947,30.687C89.671,113.07,88.679,114.017,87.482,114.017z"/>
	<path class="st2" d="M82.385,136.39c-1.236,0-2.237-1.002-2.237-2.237v-10.627c0-1.236,1.002-2.237,2.237-2.237
		s2.237,1.002,2.237,2.237v10.627C84.622,135.388,83.62,136.39,82.385,136.39z"/>
</g>
</svg>