<!-- Generator: Adobe Illustrator 19.2.1, SVG Export Plug-In  -->
<svg version="1.1"
	 xmlns="http://www.w3.org/2000/svg" xmlns:xlink="http://www.w3.org/1999/xlink" xmlns:a="http://ns.adobe.com/AdobeSVGViewerExtensions/3.0/"
	 x="0px" y="0px" width="168.358px" height="168.358px" viewBox="0 0 168.358 168.358"
	 style="enable-background:new 0 0 168.358 168.358;" xml:space="preserve">
<style type="text/css">
	.st0{fill:#00F8FF;}
	.st1{fill:#1D1D1B;}
	.st2{fill:none;stroke:#1D1D1B;stroke-width:4;stroke-miterlimit:10;}
	.st3{fill:#FFFFFF;}
</style>
<defs>
</defs>
<circle class="st0" cx="84.179" cy="84.179" r="84.179"/>
<path class="st1" d="M85.938,119.817c-45.753,0-57.786-39.543-57.902-39.943l-0.239-0.819l0.369-0.771
	c0.159-0.333,16.387-33.33,54.985-33.33c38.448,0,56.229,28.436,56.967,29.647l0.445,0.729l-0.154,0.839
	C140.327,76.605,131.873,119.817,85.938,119.817z M32.601,79.458c1.915,5.602,14.089,35.884,53.337,35.884
	c38.776,0,48.488-33.341,49.88-39.132c-3-4.338-20.106-26.783-52.668-26.783C50.616,49.428,35.203,74.716,32.601,79.458z"/>
<path class="st2" d="M106.939,75.091"/>
<path class="st1" d="M85.241,107.97c-13.915,0-25.236-11.321-25.236-25.236s11.321-25.236,25.236-25.236
	c4.33,0,8.604,1.116,12.358,3.228l-2.194,3.9c-3.086-1.736-6.601-2.653-10.164-2.653c-11.448,0-20.761,9.314-20.761,20.761
	s9.313,20.761,20.761,20.761s20.761-9.314,20.761-20.761c0-2.368-0.395-4.69-1.173-6.901l4.22-1.486
	c0.948,2.689,1.428,5.511,1.428,8.386C110.477,96.649,99.156,107.97,85.241,107.97z"/>
<g>
	<circle class="st3" cx="102.664" cy="68.099" r="7.666"/>
	<path class="st1" d="M102.664,78.002c-5.46,0-9.903-4.443-9.903-9.904c0-5.46,4.443-9.903,9.903-9.903
		c5.461,0,9.904,4.443,9.904,9.903C112.567,73.559,108.125,78.002,102.664,78.002z M102.664,62.67c-2.993,0-5.429,2.435-5.429,5.428
		c0,2.993,2.436,5.429,5.429,5.429c2.994,0,5.429-2.436,5.429-5.429C108.093,65.105,105.657,62.67,102.664,62.67z"/>
</g>
<circle class="st1" cx="85.241" cy="82.734" r="8.513"/>
<path class="st2" d="M135.5,53.5"/>
<path class="st3" d="M90.075,131.673c-3.236,0-5.29-0.341-5.572-0.39c-1.216-0.215-2.029-1.375-1.814-2.592
	c0.215-1.215,1.372-2.023,2.591-1.814c0.958,0.162,22.753,3.636,40.45-16.354c0.819-0.926,2.232-1.01,3.158-0.192
	c0.925,0.818,1.011,2.233,0.192,3.157C115.035,129.353,98.526,131.673,90.075,131.673z"/>
</svg>