<!-- Generator: Adobe Illustrator 19.2.1, SVG Export Plug-In  -->
<svg version="1.1"
	 xmlns="http://www.w3.org/2000/svg" xmlns:xlink="http://www.w3.org/1999/xlink" xmlns:a="http://ns.adobe.com/AdobeSVGViewerExtensions/3.0/"
	 x="0px" y="0px" width="196.283px" height="69.156px" viewBox="0 0 196.283 69.156"
	 style="enable-background:new 0 0 196.283 69.156;" xml:space="preserve">
<style type="text/css">
	.st0{fill:#06AEF8;}
	.st1{fill:#00F8FF;}
</style>
<defs>
</defs>
<g>
	<g>
		<rect x="5.632" y="16.794" class="st0" width="10.077" height="36.752"/>
		
			<rect x="17.586" y="10.164" transform="matrix(0.7664 -0.6424 0.6424 0.7664 -8.7397 19.6344)" class="st0" width="10.078" height="23.338"/>
		
			<rect x="34.073" y="17.091" transform="matrix(0.6424 -0.7664 0.7664 0.6424 -0.6012 42.9701)" class="st0" width="23.339" height="10.077"/>
		<path class="st1" d="M10.472,20.944C4.698,20.944,0,16.246,0,10.472C0,4.698,4.698,0,10.472,0c5.775,0,10.472,4.698,10.472,10.472
			C20.944,16.246,16.247,20.944,10.472,20.944z M10.472,5.927c-2.505,0-4.544,2.038-4.544,4.546c0,2.505,2.039,4.543,4.544,4.543
			c2.506,0,4.545-2.038,4.545-4.543C15.017,7.965,12.978,5.927,10.472,5.927z"/>
		<path class="st1" d="M10.472,69.156C4.698,69.156,0,64.458,0,58.684C0,52.908,4.698,48.21,10.472,48.21
			c5.775,0,10.472,4.698,10.472,10.474C20.944,64.458,16.247,69.156,10.472,69.156z M10.472,54.138
			c-2.505,0-4.544,2.038-4.544,4.546c0,2.505,2.039,4.544,4.544,4.544c2.506,0,4.545-2.038,4.545-4.544
			C15.017,56.177,12.978,54.138,10.472,54.138z"/>
		<rect x="79.134" y="16.794" class="st0" width="10.077" height="36.752"/>
		<path class="st1" d="M83.975,20.944c-5.775,0-10.473-4.698-10.473-10.472C73.502,4.698,78.2,0,83.975,0
			c5.774,0,10.472,4.698,10.472,10.472C94.447,16.246,89.75,20.944,83.975,20.944z M83.975,5.927c-2.506,0-4.546,2.038-4.546,4.546
			c0,2.505,2.039,4.543,4.546,4.543c2.505,0,4.545-2.038,4.545-4.543C88.52,7.965,86.481,5.927,83.975,5.927z"/>
		<path class="st1" d="M83.975,69.156c-5.775,0-10.473-4.698-10.473-10.472c0-5.776,4.698-10.474,10.473-10.474
			c5.774,0,10.472,4.698,10.472,10.474C94.447,64.458,89.75,69.156,83.975,69.156z M83.975,54.138c-2.506,0-4.546,2.038-4.546,4.546
			c0,2.505,2.039,4.544,4.546,4.544c2.505,0,4.545-2.038,4.545-4.544C88.52,56.177,86.481,54.138,83.975,54.138z"/>
		<rect x="52.46" y="16.794" class="st0" width="10.077" height="36.752"/>
		<path class="st1" d="M57.301,20.944c-5.775,0-10.473-4.698-10.473-10.472C46.828,4.698,51.526,0,57.301,0
			c5.774,0,10.472,4.698,10.472,10.472C67.773,16.246,63.075,20.944,57.301,20.944z M57.301,5.927c-2.506,0-4.546,2.038-4.546,4.546
			c0,2.505,2.039,4.543,4.546,4.543c2.505,0,4.545-2.038,4.545-4.543C61.846,7.965,59.806,5.927,57.301,5.927z"/>
		<path class="st1" d="M34.479,45.248c-5.774,0-10.472-4.698-10.472-10.472c0-5.774,4.698-10.472,10.472-10.472
			c5.775,0,10.473,4.698,10.473,10.472C44.952,40.55,40.254,45.248,34.479,45.248z M34.479,30.23c-2.505,0-4.544,2.038-4.544,4.546
			c0,2.505,2.039,4.543,4.544,4.543c2.506,0,4.546-2.038,4.546-4.543C39.025,32.268,36.985,30.23,34.479,30.23z"/>
		<path class="st1" d="M57.301,69.156c-5.775,0-10.473-4.698-10.473-10.472c0-5.776,4.698-10.474,10.473-10.474
			c5.774,0,10.472,4.698,10.472,10.474C67.773,64.458,63.075,69.156,57.301,69.156z M57.301,54.138
			c-2.506,0-4.546,2.038-4.546,4.546c0,2.505,2.039,4.544,4.546,4.544c2.505,0,4.545-2.038,4.545-4.544
			C61.846,56.177,59.806,54.138,57.301,54.138z"/>
	</g>
	<path class="st0" d="M105.563,29.502c0-3.441,2.501-5.943,5.94-5.943c2.564,0,4.501,1.628,5.753,4.002L128.638,49.2l11.754-22.199
		c1.124-2.189,3.001-3.441,5.253-3.441c3.251,0,5.565,2.377,5.565,5.63v34.14c0,2.688-1.876,4.628-4.565,4.628
		c-2.752,0-4.691-1.94-4.691-4.628V40.069l-9.316,17.571c-0.876,1.752-2.063,3.191-4.189,3.191c-2.189,0-3.378-1.439-4.315-3.191
		l-9.317-17.571V63.33c0,2.688-1.939,4.628-4.627,4.628c-2.752,0-4.628-1.94-4.628-4.628V29.502z"/>
	<path class="st0" d="M158.275,60.64l12.254-15.134l-11.317-14.192c-0.751-0.936-1.189-2.062-1.189-3.251
		c0-2.626,1.877-4.504,4.565-4.504c1.626,0,3.002,0.874,3.878,2.064l9.94,13.069l10.38-13.444c0.814-1,2.127-1.69,3.503-1.69
		c2.627,0,4.377,1.75,4.377,4.253c0,1.062-0.375,2.126-1.001,2.94l-11.694,14.442l11.945,15.008c0.75,0.876,1.313,2.127,1.313,3.313
		c0,2.563-1.877,4.441-4.565,4.441c-1.626,0-3.002-0.876-3.878-2.064L176.095,52.01l-10.693,13.695
		c-0.937,1.251-2.313,2.253-3.938,2.253c-2.626,0-4.315-1.752-4.315-4.189C157.149,62.578,157.587,61.454,158.275,60.64z"/>
	<circle class="st1" cx="110.275" cy="63.679" r="4.611"/>
	<circle class="st1" cx="110.275" cy="28.368" r="4.611"/>
	<path class="st1" d="M133.22,56.224c0.019,2.541-2.036,4.621-4.581,4.637c-2.547,0.016-4.623-2.039-4.639-4.582
		c-0.017-2.545,2.036-4.621,4.583-4.639C131.128,51.623,133.203,53.674,133.22,56.224z"/>
	<ellipse transform="matrix(1 -0.0059 0.0059 1 -0.1625 0.863)" class="st1" cx="145.19" cy="27.781" rx="4.611" ry="4.611"/>
	<rect x="105.662" y="28.227" class="st1" width="9.155" height="35.616"/>
	
		<rect x="120.544" y="37.313" transform="matrix(0.4982 -0.8671 0.8671 0.4982 32.4073 139.7762)" class="st1" width="32.829" height="9.156"/>
	
		<ellipse transform="matrix(0.1258 -0.992 0.992 0.1258 78.1463 215.6873)" class="st1" cx="161.462" cy="63.501" rx="4.612" ry="4.61"/>
	
		<ellipse transform="matrix(0.1261 -0.992 0.992 0.1261 138.6595 213.2603)" class="st1" cx="190.368" cy="27.933" rx="4.611" ry="4.611"/>
	<polygon class="st1" points="186.959,24.967 194.06,30.747 165.231,66.188 158.125,60.414 	"/>
	<g>
		<g>
			<path class="st1" d="M113.57,1.905c2.183,0,3.731,0.566,4.811,1.247c0.798,0.5,1.22,1.157,1.22,1.929
				c0,1.203-0.939,2.043-2.065,2.043c-0.563,0-1.056-0.205-1.455-0.477c-0.751-0.5-1.455-0.771-2.582-0.771
				c-2.464,0-4.225,1.814-4.225,4.197s1.76,4.197,4.225,4.197c1.455,0,2.182-0.499,2.722-0.907c0.375-0.295,0.938-0.567,1.525-0.567
				c1.22,0,2.065,0.817,2.065,1.974c0,0.658-0.352,1.248-0.774,1.634c-0.657,0.567-2.487,1.838-5.609,1.838
				c-4.952,0-8.612-3.517-8.612-8.1C104.817,5.557,108.619,1.905,113.57,1.905z"/>
			<path class="st1" d="M126.616,4.219v11.707c0,1.294-0.962,2.201-2.276,2.201c-1.338,0-2.3-0.907-2.3-2.201V4.219
				c0-1.294,0.962-2.201,2.3-2.201C125.653,2.018,126.616,2.925,126.616,4.219z"/>
			<path class="st1" d="M144.332,4.173v7.192c0,4.152-2.98,6.875-7.345,6.875s-7.205-2.586-7.205-6.738V4.173
				c0-1.271,0.938-2.178,2.253-2.178c1.314,0,2.276,0.907,2.276,2.178v7.147c0,1.838,1.126,2.949,2.816,2.949
				c1.69,0,2.816-1.111,2.816-2.949V4.173c0-1.226,0.938-2.133,2.206-2.133C143.417,2.041,144.332,2.948,144.332,4.173z"/>
			<path class="st1" d="M147.381,4.287c0-1.248,0.939-2.155,2.229-2.155h3.943c5.304,0,9.082,3.358,9.082,7.873
				c0,4.516-3.919,8.01-9.223,8.01h-3.802c-1.291,0-2.229-0.907-2.229-2.155V4.287z M153.6,14.27c2.675,0,4.576-1.747,4.576-4.197
				s-1.901-4.197-4.576-4.197h-1.76v8.395H153.6z"/>
			<path class="st1" d="M163.641,14.906l4.6-10.71c0.61-1.43,1.643-2.178,3.074-2.178s2.44,0.726,3.051,2.178l4.459,10.46
				c0.258,0.613,0.329,1.021,0.329,1.294c0,1.271-0.892,2.178-2.229,2.178c-1.033,0-1.807-0.567-2.206-1.656l-0.446-1.18h-6.243
				l-0.422,1.157c-0.399,1.066-1.126,1.679-2.112,1.679c-1.244,0-2.159-0.862-2.159-2.042
				C163.337,15.791,163.431,15.382,163.641,14.906z M173.005,11.888l-1.83-4.901l-1.854,4.901H173.005z"/>
			<path class="st1" d="M181.029,4.287c0-1.248,0.939-2.155,2.229-2.155h3.943c5.304,0,9.082,3.358,9.082,7.873
				c0,4.516-3.919,8.01-9.223,8.01h-3.802c-1.291,0-2.229-0.907-2.229-2.155V4.287z M187.248,14.27c2.675,0,4.576-1.747,4.576-4.197
				s-1.901-4.197-4.576-4.197h-1.76v8.395H187.248z"/>
		</g>
	</g>
</g>
</svg>