<!-- Generator: Adobe Illustrator 19.2.1, SVG Export Plug-In  -->
<svg version="1.1"
	 xmlns="http://www.w3.org/2000/svg" xmlns:xlink="http://www.w3.org/1999/xlink" xmlns:a="http://ns.adobe.com/AdobeSVGViewerExtensions/3.0/"
	 x="0px" y="0px" width="1921px" height="1085.548px" viewBox="0 0 1921 1085.548"
	 style="enable-background:new 0 0 1921 1085.548;" xml:space="preserve">
<style type="text/css">
	.st0{fill:#212121;}
	.st1{fill:none;stroke:#2D2D2D;stroke-width:4;stroke-linejoin:bevel;stroke-miterlimit:10;}
	.st2{fill:none;stroke:#2D2D2D;stroke-width:4;stroke-miterlimit:10;}
	.st3{fill:none;stroke:#2D2D2D;stroke-width:4;stroke-linejoin:round;stroke-miterlimit:10;}
	.st4{fill:none;stroke:#2D2D2D;stroke-width:4;stroke-miterlimit:10;stroke-dasharray:80;}
	.st5{fill:#FFFFFF;stroke:#2D2D2D;stroke-width:4;stroke-miterlimit:10;}
	.st6{fill:#F7F7F9;}
	.st7{fill:none;stroke:#2D2D2D;stroke-width:4;stroke-linejoin:bevel;}
	.st8{fill:none;stroke:#2D2D2D;stroke-width:4;stroke-linejoin:bevel;stroke-dasharray:42.2308,42.2308;}
	.st9{fill:#F7F7F9;stroke:#2D2D2D;stroke-width:4;stroke-linejoin:bevel;stroke-miterlimit:10;}
	.st10{fill:#F7F7F9;stroke:#2D2D2D;stroke-width:4;stroke-miterlimit:10;}
	.st11{fill:#06AEF8;stroke:#2D2D2D;stroke-width:4;stroke-miterlimit:10;}
	.st12{clip-path:url(#SVGID_3_);fill:none;stroke:#2D2D2D;stroke-width:4;stroke-miterlimit:10;}
	.st13{clip-path:url(#SVGID_4_);}
	.st14{clip-path:url(#SVGID_6_);fill:none;stroke:#2D2D2D;stroke-width:4;stroke-miterlimit:10;}
	.st15{clip-path:url(#SVGID_8_);}
</style>
<defs>
</defs>
<g>
	<rect y="3.548" class="st0" width="1920" height="1080"/>
	<line class="st1" x1="521.868" y1="110.548" x2="1187.332" y2="110.548"/>
	<path class="st2" d="M1194.826,800h88.563c51.18,0,92.67-41.489,92.67-92.668v-19.786h-181.233"/>
	<line class="st2" x1="793.904" y1="673.084" x2="739.826" y2="673.084"/>
	<line class="st2" x1="891.571" y1="673.084" x2="837.492" y2="673.084"/>
	<line class="st2" x1="1098.571" y1="673.084" x2="1043.492" y2="673.084"/>
	<line class="st2" x1="1196.238" y1="673.084" x2="1142.158" y2="673.084"/>
	<path class="st2" d="M793.904,686.382v-24.226c0-11.541,9.357-20.898,20.898-20.898l0,0c11.541,0,20.896,9.357,20.896,20.898
		v24.226"/>
	<path class="st2" d="M788.348,597.22v-30.668c0-14.61,11.844-26.455,26.455-26.455l0,0c14.609,0,26.455,11.845,26.455,26.455
		v30.668"/>
	<path class="st2" d="M1092.904,597.22v-30.668c0-14.61,11.844-26.455,26.455-26.455l0,0c14.609,0,26.455,11.845,26.455,26.455
		v30.668"/>
	<path class="st2" d="M1098.461,686.382v-24.226c0-11.541,9.357-20.898,20.898-20.898l0,0c11.541,0,20.896,9.357,20.896,20.898
		v24.226"/>
	<rect x="907.326" y="611.75" class="st2" width="17.971" height="74.632"/>
	<rect x="941.002" y="611.75" class="st2" width="17.972" height="74.632"/>
	<rect x="974.678" y="611.75" class="st2" width="17.972" height="74.632"/>
	<rect x="1008.354" y="611.75" class="st2" width="17.973" height="74.632"/>
	<line class="st2" x1="1194.826" y1="611.75" x2="739.826" y2="611.75"/>
	<line class="st2" x1="1086.123" y1="499.632" x2="848.861" y2="499.632"/>
	<path class="st2" d="M876.514,443.881c7.396-43.91,45.598-77.359,91.609-77.359c46.014,0,84.213,33.449,91.609,77.359"/>
	<path class="st2" d="M903.184,443.881c4.691-43.91,28.924-77.359,58.109-77.359"/>
	<path class="st2" d="M938.33,443.881c2.738-43.91,16.879-77.359,33.912-77.359"/>
	<path class="st2" d="M997.289,443.881c-2.738-43.91-16.879-77.359-33.912-77.359"/>
	<path class="st2" d="M1032.436,443.881c-4.691-43.91-28.922-77.359-58.109-77.359"/>
	<path class="st2" d="M849.982,456.882h-38.5c-9.685,0-17.76,6.884-19.603,16.025l0,0c0,0-0.002,0.016-0.002,0.02
		c-0.16,0.799-0.258,1.621-0.318,2.453c-1.174,6.619-6.51,24.252-30.066,24.252h49.24v-0.002c0.248,0,0.498,0.002,0.75,0.002h38.5"
		/>
	<path class="st2" d="M1086.123,456.882h38.5c9.686,0,17.76,6.884,19.604,16.025l0,0c0,0,0.002,0.016,0.002,0.02
		c0.16,0.799,0.258,1.621,0.318,2.453c1.174,6.619,6.51,24.252,30.066,24.252h-49.24v-0.002c-0.248,0-0.498,0.002-0.75,0.002h-38.5"
		/>
	<path class="st2" d="M891.826,686.382v-94c0-41.421,33.578-75,75-75c41.422,0,75,33.579,75,75v94"/>
	<path class="st2" d="M907.326,596.132c0-32.861,26.639-59.5,59.5-59.5c32.861,0,59.5,26.639,59.5,59.5H907.326z"/>
	<path class="st2" d="M925.297,594.423c0-22.937,18.594-41.528,41.529-41.528c22.935,0,41.527,18.592,41.527,41.528"/>
	<rect x="952.494" y="324.882" class="st2" width="30.5" height="41.64"/>
	<path class="st2" d="M973.236,307.448c0,3.116-2.525,5.643-5.641,5.643l0,0c-3.117,0-5.643-2.526-5.643-5.643v-9.215
		c0-3.115,2.525-5.642,5.643-5.642l0,0c3.115,0,5.641,2.527,5.641,5.642V307.448z"/>
	<line class="st2" x1="967.596" y1="313.381" x2="967.596" y2="323.881"/>
	<line class="st2" x1="972.975" y1="296.531" x2="979.346" y2="288.131"/>
	<line class="st2" x1="962.512" y1="296.531" x2="956.141" y2="288.131"/>
	<line class="st2" x1="913.301" y1="384.415" x2="1023.902" y2="384.415"/>
	<path class="st2" d="M946.006,499.632v-26.334c0-4.832-3.918-8.75-8.75-8.75l0,0c-4.832,0-8.75,3.918-8.75,8.75v26.334H946.006z"/>
	<path class="st2" d="M915.635,499.632v-26.334c0-4.832-3.918-8.75-8.75-8.75l0,0c-4.832,0-8.75,3.918-8.75,8.75v26.334H915.635z"/>
	<path class="st2" d="M885.264,499.632v-26.334c0-4.832-3.918-8.75-8.75-8.75l0,0c-4.834,0-8.75,3.918-8.75,8.75v26.334H885.264z"/>
	<path class="st2" d="M976.377,499.632v-26.334c0-4.832-3.916-8.75-8.75-8.75l0,0c-4.832,0-8.75,3.918-8.75,8.75v26.334H976.377z"/>
	<path class="st2" d="M1006.75,499.632v-26.334c0-4.832-3.918-8.75-8.75-8.75l0,0c-4.832,0-8.75,3.918-8.75,8.75v26.334H1006.75z"/>
	<path class="st2" d="M1037.121,499.632v-26.334c0-4.832-3.918-8.75-8.75-8.75l0,0c-4.832,0-8.75,3.918-8.75,8.75v26.334H1037.121z"
		/>
	<path class="st2" d="M1067.492,499.632v-26.334c0-4.832-3.916-8.75-8.75-8.75l0,0c-4.832,0-8.75,3.918-8.75,8.75v26.334H1067.492z"
		/>
	<line class="st2" x1="968.123" y1="443.881" x2="968.123" y2="366.539"/>
	<rect x="755.159" y="499.632" class="st2" width="94.823" height="17.75"/>
	<rect x="1086.125" y="499.632" class="st2" width="108.701" height="17.75"/>
	<polygon class="st2" points="1038.576,686.382 1194.826,686.382 1194.826,517.382 739.826,517.382 739.826,686.382 
		895.492,686.382 	"/>
	<path class="st2" d="M1049.562,443.882v-6.835c0-2.945-2.389-5.333-5.334-5.333s-5.334,2.388-5.334,5.333v6.835h-20.479v-6.835
		c0-2.945-2.387-5.333-5.332-5.333s-5.334,2.388-5.334,5.333v6.835h-19.717v-6.835c0-2.945-2.387-5.333-5.332-5.333
		s-5.334,2.388-5.334,5.333v6.835h-19.479v-6.835c0-2.945-2.389-5.333-5.334-5.333s-5.334,2.388-5.334,5.333v6.835h-20.229v-6.835
		c0-2.945-2.389-5.333-5.334-5.333c-2.945,0-5.332,2.388-5.332,5.333v6.835h-19.48v-6.835c0-2.945-2.387-5.333-5.332-5.333
		s-5.334,2.388-5.334,5.333v6.835h-36.057v73.5h236v-73.5H1049.562z"/>
	<line class="st2" x1="1274.704" y1="686.382" x2="1274.704" y2="605.755"/>
	<line class="st2" x1="1274.704" y1="623.713" x2="1289.148" y2="617.935"/>
	<line class="st2" x1="685.414" y1="659.548" x2="685.414" y2="641.337"/>
	<path class="st2" d="M673.933,605.281c0,0,4.663-2.973,2.319-8.06c0,0-2.171-4.174-2.171-6.668c0-6.259,5.074-11.333,11.333-11.333
		c6.259,0,11.332,5.074,11.332,11.333c0,2.494-2.169,6.668-2.169,6.668c-2.344,5.087,2.318,8.061,2.318,8.061
		c5.084,3.603,8.406,9.529,8.406,16.235c0,10.984-8.904,19.888-19.888,19.888c-10.985,0-19.89-8.903-19.89-19.888
		C665.524,614.812,668.847,608.885,673.933,605.281z"/>
	<line class="st2" x1="695.19" y1="619.518" x2="689.635" y2="626.216"/>
	<line class="st2" x1="683.413" y1="587.296" x2="685.414" y2="592.406"/>
	<line class="st2" x1="678.191" y1="613.74" x2="681.856" y2="619.518"/>
	<rect x="1089.165" y="729.295" class="st2" width="57.855" height="19.075"/>
	<line class="st2" x1="1089.165" y1="772.295" x2="1089.165" y2="748.37"/>
	<rect x="780.165" y="729.295" class="st2" width="57.855" height="19.075"/>
	<line class="st2" x1="780.165" y1="772.295" x2="780.165" y2="748.37"/>
	<line class="st2" x1="838.021" y1="772.295" x2="838.021" y2="748.37"/>
	<line class="st2" x1="1147.021" y1="772.295" x2="1147.021" y2="748.37"/>
	<g>
		<rect x="1507.998" y="447.225" class="st2" width="58.93" height="357.883"/>
		<line class="st2" x1="1507.998" y1="489.004" x2="1566.928" y2="489.004"/>
		<line class="st2" x1="1507.998" y1="464.742" x2="1566.928" y2="464.742"/>
		<rect x="1507.998" y="539.627" class="st2" width="58.93" height="14.733"/>
		<rect x="1507.998" y="604.764" class="st2" width="58.93" height="14.732"/>
		<rect x="1507.998" y="669.285" class="st2" width="58.93" height="14.733"/>
		<path class="st2" d="M1537.977,685.301c0,7.955-6.448,14.403-14.402,14.403c-7.956,0-14.404-6.448-14.404-14.403"/>
		<path class="st2" d="M1566.783,685.301c0,7.955-6.448,14.403-14.404,14.403c-7.954,0-14.402-6.448-14.402-14.403"/>
		<path class="st2" d="M1489.965,412.043c0-8.017,6.499-14.515,14.515-14.515s14.512,6.498,14.512,14.515
			c0,8.014-6.496,14.512-14.512,14.512S1489.965,420.057,1489.965,412.043"/>
		<line class="st2" x1="1492.59" y1="420.362" x2="1507.998" y2="447.225"/>
		<circle class="st2" cx="1570.701" cy="412.042" r="14.513"/>
		<line class="st2" x1="1582.59" y1="420.362" x2="1567.184" y2="447.225"/>
		<polyline class="st2" points="1513.947,401.049 1537.463,417.319 1561.232,401.049 		"/>
		<rect x="1489.965" y="367.477" class="st2" width="95.25" height="20.669"/>
		<line class="st2" x1="1489.965" y1="412.043" x2="1489.965" y2="388.146"/>
		<line class="st2" x1="1585.215" y1="412.043" x2="1585.215" y2="388.146"/>
		<line class="st2" x1="1503.99" y1="367.477" x2="1503.99" y2="388.146"/>
		<line class="st2" x1="1517.135" y1="367.477" x2="1517.135" y2="388.146"/>
		<line class="st2" x1="1530.279" y1="367.477" x2="1530.279" y2="388.146"/>
		<line class="st2" x1="1543.424" y1="367.477" x2="1543.424" y2="388.146"/>
		<line class="st2" x1="1556.568" y1="367.477" x2="1556.568" y2="388.146"/>
		<line class="st2" x1="1569.713" y1="367.477" x2="1569.713" y2="388.146"/>
		<rect x="1512.578" y="328.922" class="st2" width="48.486" height="38.555"/>
		<path class="st2" d="M1569.567,809.725c0,2.551-2.067,4.618-4.618,4.618h-53.654c-2.55,0-4.617-2.067-4.617-4.618l0,0
			c0-2.55,2.067-4.617,4.617-4.617h53.654C1567.5,805.107,1569.567,807.175,1569.567,809.725L1569.567,809.725z"/>
		<line class="st2" x1="1513.714" y1="342.226" x2="1562.2" y2="342.226"/>
		<rect x="1493.924" y="829.295" class="st2" width="89.717" height="31.006"/>
		<rect x="1471.137" y="862.279" class="st2" width="133.476" height="8.136"/>
		<polyline class="st2" points="1507.828,900.689 1445.96,900.689 1445.96,886.322 1629.791,886.322 1629.791,900.689 
			1567.922,900.689 		"/>
		<path class="st2" d="M1498.881,984.247v-58.702c0-21.536,17.458-38.994,38.994-38.994l0,0c21.535,0,38.994,17.458,38.994,38.994
			v58.702"/>
		<path class="st2" d="M1498,925.398h18.627c0-11.98,9.714-21.694,21.693-21.694l0,0c11.981,0,21.695,9.714,21.695,21.694h15.975"/>
		<rect x="1446.546" y="983.073" class="st2" width="182.659" height="12.021"/>
		<path class="st2" d="M1501.841,908.091c0,4.089-3.313,7.403-7.402,7.403h-20.231c-4.09,0-7.402-3.315-7.402-7.403l0,0
			c0-4.089,3.312-7.401,7.402-7.401h20.231C1498.527,900.689,1501.841,904.002,1501.841,908.091L1501.841,908.091z"/>
		<path class="st2" d="M1609.267,908.091c0,4.089-3.313,7.403-7.402,7.403h-20.231c-4.089,0-7.403-3.315-7.403-7.403l0,0
			c0-4.089,3.314-7.401,7.403-7.401h20.231C1605.953,900.689,1609.267,904.002,1609.267,908.091L1609.267,908.091z"/>
		<path class="st2" d="M1474.426,915.494v45.297c0,0,0.733,22.062-22.062,22.062"/>
		<path class="st2" d="M1603.036,915.494v45.297c0,0-0.732,22.062,22.062,22.062"/>
		<path class="st2" d="M1471.137,886.322c0,0,4.865-1.943,4.865-15.907"/>
		<path class="st2" d="M1604.041,886.322c0,0-4.865-1.943-4.865-15.907"/>
		<rect x="1516.354" y="941.146" class="st2" width="42.658" height="28.295"/>
		<path class="st2" d="M1637.587,1009.755c0-7.61-6.17-13.78-13.78-13.78h-172.396c-7.611,0-13.78,6.17-13.78,13.78l0,0H1637.587z"
			/>
		<line class="st2" x1="1519.432" y1="699.704" x2="1519.432" y2="805.107"/>
		<line class="st2" x1="1531.452" y1="696.48" x2="1531.452" y2="805.107"/>
		<line class="st2" x1="1543.472" y1="696.619" x2="1543.472" y2="805.107"/>
		<line class="st2" x1="1555.494" y1="699.704" x2="1555.494" y2="805.107"/>
		<rect x="1392.773" y="1009.755" class="st2" width="53.772" height="14.366"/>
		<rect x="1622.781" y="1009.755" class="st2" width="53.771" height="14.366"/>
		<polygon class="st2" points="1446.546,1081.514 1376.06,1081.514 1392.773,1024.121 1446.546,1024.121 		"/>
		<polygon class="st2" points="1622.781,1081.514 1693.267,1081.514 1676.553,1024.121 1622.781,1024.121 		"/>
		<rect x="1446.546" y="1024.121" class="st2" width="176.235" height="57.393"/>
		<line class="st2" x1="1520.75" y1="464.742" x2="1520.75" y2="447.225"/>
		<line class="st2" x1="1532.186" y1="464.742" x2="1532.186" y2="447.225"/>
		<line class="st2" x1="1543.619" y1="464.742" x2="1543.619" y2="447.225"/>
		<line class="st2" x1="1555.054" y1="464.742" x2="1555.054" y2="447.225"/>
		<path class="st2" d="M1506.678,809.725c0,0,1.32,19.919-14.641,19.919"/>
		<path class="st2" d="M1570.06,809.725c0,0-1.319,19.919,14.641,19.919"/>
		<rect x="1528.932" y="351.204" class="st2" width="14.733" height="16.272"/>
		<path class="st2" d="M1514.586,328.922v-3.934l0,0c0-3.348,2.714-6.061,6.061-6.061h31.451c3.348,0,6.061,2.714,6.061,6.061v3.934
			"/>
		<path class="st2" d="M1547.592,306.425c0,5.769-4.678,10.444-10.445,10.444l0,0c-5.77,0-10.445-4.676-10.445-10.444v-19.827
			c0-5.77,4.676-10.445,10.445-10.445l0,0c5.768,0,10.445,4.676,10.445,10.445V306.425z"/>
		<line class="st2" x1="1382.293" y1="1062.748" x2="1510.901" y2="1062.748"/>
		<line class="st2" x1="1560.796" y1="1062.748" x2="1689.403" y2="1062.748"/>
		<rect x="1510.901" y="1024.121" class="st2" width="48.11" height="57.393"/>
		<rect x="1523.479" y="1036.729" class="st2" width="24.218" height="44.785"/>
		<path class="st2" d="M1542.439,270.859c0,2.924-2.369,5.293-5.293,5.293l0,0c-2.924,0-5.294-2.369-5.294-5.293v-2.619
			c0-2.923,2.37-5.293,5.294-5.293l0,0c2.924,0,5.293,2.37,5.293,5.293V270.859z"/>
	</g>
	<rect x="658.25" y="656.798" class="st2" width="57" height="11.5"/>
	<polygon class="st3" points="708.25,686.382 665.25,686.382 658.25,668.709 715.25,668.709 	"/>
	<line class="st2" x1="557.544" y1="1031.761" x2="557.544" y2="1017.146"/>
	<path class="st2" d="M547.794,986.528c0,0,3.96-2.523,1.97-6.844c0,0-1.843-3.544-1.843-5.662c0-5.314,4.309-9.623,9.623-9.623
		c5.315,0,9.623,4.309,9.623,9.623c0,2.118-1.842,5.662-1.842,5.662c-1.99,4.32,1.969,6.846,1.969,6.846
		c4.317,3.059,7.138,8.092,7.138,13.785c0,9.327-7.561,16.889-16.888,16.889c-9.329,0-16.89-7.562-16.89-16.889
		C540.654,994.622,543.476,989.589,547.794,986.528z"/>
	<line class="st2" x1="565.846" y1="998.618" x2="561.128" y2="1004.306"/>
	<line class="st2" x1="555.845" y1="971.257" x2="557.544" y2="975.596"/>
	<line class="st2" x1="551.411" y1="993.712" x2="554.523" y2="998.618"/>
	<line class="st2" x1="605.051" y1="1031.761" x2="605.051" y2="1015.355"/>
	<path class="st2" d="M594.107,980.988c0,0,4.445-2.832,2.211-7.682c0,0-2.069-3.977-2.069-6.355
		c0-5.966,4.837-10.802,10.802-10.802c5.965,0,10.801,4.836,10.801,10.802c0,2.378-2.067,6.355-2.067,6.355
		c-2.234,4.85,2.21,7.685,2.21,7.685c4.845,3.433,8.012,9.082,8.012,15.473c0,10.47-8.487,18.957-18.956,18.957
		c-10.471,0-18.958-8.487-18.958-18.957C586.093,990.073,589.26,984.424,594.107,980.988z"/>
	<line class="st2" x1="614.369" y1="994.56" x2="609.074" y2="1000.943"/>
	<line class="st2" x1="603.144" y1="963.847" x2="605.051" y2="968.717"/>
	<line class="st2" x1="598.167" y1="989.052" x2="601.66" y2="994.56"/>
	<rect x="544.539" y="1030.011" class="st2" width="67.73" height="11.5"/>
	<rect x="544.539" y="1041.921" class="st2" width="67.73" height="17.674"/>
	<rect x="891.826" y="686.382" class="st2" width="150" height="397.166"/>
	<rect x="1041.359" y="686.382" class="st2" width="153.467" height="397.166"/>
	<rect x="738.068" y="686.382" class="st2" width="153.467" height="397.166"/>
	<rect x="495.084" y="807.375" class="st2" width="242.984" height="113.173"/>
	<g>
		<circle class="st2" cx="1780.88" cy="668.792" r="16.667"/>
		<circle class="st2" cx="1848.12" cy="668.792" r="16.667"/>
		<polygon class="st1" points="1780.88,668.793 1815.177,654.798 1801.677,639.548 		"/>
		<line class="st2" x1="1815.177" y1="654.798" x2="1848.12" y2="668.793"/>
		<polyline class="st2" points="1801.677,639.548 1811.677,627.548 1818.677,627.548 		"/>
	</g>
	<g>
		<circle class="st2" cx="1764.214" cy="549.751" r="16.667"/>
		<circle class="st2" cx="1696.973" cy="549.751" r="16.667"/>
		<polygon class="st1" points="1764.214,549.752 1729.917,535.757 1743.417,520.507 		"/>
		<line class="st2" x1="1729.917" y1="535.757" x2="1696.974" y2="549.752"/>
		<polyline class="st2" points="1743.417,520.507 1733.417,508.507 1726.417,508.507 		"/>
	</g>
	<path class="st2" d="M495.084,807.375c-110.457,0-200-89.544-200-200v-218v-84.827"/>
	<path class="st2" d="M295.085,309.339c0-110.457-89.543-200-200-200H1"/>
	<line class="st2" x1="738.068" y1="686.382" x2="231.5" y2="686.382"/>
	<line class="st2" x1="495.084" y1="884.965" x2="495.084" y2="1084.548"/>
	<polygon class="st2" points="233,522.481 4.125,504.481 4.125,685.674 233,685.674 	"/>
	<polygon class="st2" points="92.454,435.815 64,435.815 64,509.19 92.454,511.428 	"/>
	<polygon class="st2" points="152.454,435.815 124,435.815 124,513.909 152.454,516.146 	"/>
	<circle class="st2" cx="203.5" cy="455.481" r="12"/>
	<circle class="st2" cx="223.659" cy="384.092" r="28"/>
	<circle class="st2" cx="93.821" cy="244.735" r="38.188"/>
	<line class="st2" x1="152.454" y1="450.483" x2="124" y2="450.483"/>
	<line class="st2" x1="92.454" y1="450.483" x2="64" y2="450.483"/>
	<path class="st2" d="M76.98,601.402v-27.691c0-9.885,8.012-17.896,17.896-17.896l0,0c9.884,0,17.896,8.012,17.896,17.896v27.691
		H76.98z"/>
	<path class="st2" d="M134.12,601.402v-27.691c0-9.885,8.012-17.896,17.896-17.896l0,0c9.883,0,17.896,8.012,17.896,17.896v27.691
		H134.12z"/>
	<path class="st2" d="M144.507,403.1c0,0-0.57-0.77-0.884-1.132c-1.49-2.143-3.994-6.999-0.265-11.634h-0.002
		c3.879-5.056,6.19-11.377,6.19-18.242c0-16.569-13.432-30-30-30s-30,13.431-30,30c0,15.369,11.109,27.972,26.004,29.728
		l0.442,0.062c6.659,0.65,6.633,6.926,6.633,6.926c-0.029,0.339-0.052,0.68-0.052,1.026c0,6.627,5.373,12,12,12
		c6.628,0,12-5.373,12-12C146.574,407.337,145.811,405.02,144.507,403.1L144.507,403.1z"/>
	<rect x="50.5" y="637.481" class="st2" width="93.5" height="48.192"/>
	<line class="st2" x1="233" y1="575.981" x2="169.912" y2="575.981"/>
	<line class="st2" x1="134.12" y1="575.981" x2="112.772" y2="575.981"/>
	<line class="st2" x1="233" y1="535.882" x2="295.085" y2="535.882"/>
	<line class="st2" x1="233" y1="522.215" x2="295.085" y2="522.215"/>
	<line class="st2" x1="233" y1="569.632" x2="295.085" y2="569.632"/>
	<line class="st2" x1="233" y1="603.382" x2="295.085" y2="603.382"/>
	<line class="st2" x1="233" y1="654.007" x2="299.751" y2="654.007"/>
	<line class="st2" x1="233" y1="670.882" x2="305.379" y2="670.882"/>
	<path class="st2" d="M611.836,312.383h16.706c1.583-21.014,19.12-37.573,40.538-37.573c22.46,0,40.667,18.207,40.667,40.667
		c0,7.653-2.118,14.811-5.794,20.924h12.719c5.452,0,9.872,4.42,9.872,9.871c0,5.452-4.419,9.872-9.872,9.872h-44.499
		c-0.344,0-0.685-0.019-1.019-0.053c-0.687,0.034-1.379,0.053-2.075,0.053c-1.338,0-2.661-0.069-3.966-0.195
		c-0.945,0.124-1.906,0.195-2.885,0.195h-50.392c-12.084,0-21.88-9.796-21.88-21.881
		C589.956,322.179,599.752,312.383,611.836,312.383z"/>
	<line class="st2" x1="76.98" y1="589.147" x2="112.772" y2="589.147"/>
	<line class="st2" x1="134.12" y1="589.147" x2="169.912" y2="589.147"/>
	<line class="st2" x1="97.25" y1="637.481" x2="97.25" y2="684.148"/>
	<line class="st2" x1="109.022" y1="661.577" x2="116.522" y2="661.577"/>
	<circle class="st2" cx="1274.704" cy="584.214" r="24.502"/>
	<g>
		<path class="st2" d="M51.772,719.7c0,10.218-8.283,18.5-18.5,18.5"/>
		<path class="st2" d="M51.772,719.7c0,10.218,8.283,18.5,18.5,18.5"/>
		<path class="st2" d="M88.772,719.7c0,10.218-8.283,18.5-18.5,18.5"/>
		<path class="st2" d="M88.772,719.7c0,10.218,8.283,18.5,18.5,18.5"/>
		<path class="st2" d="M125.772,719.7c0,10.218-8.283,18.5-18.5,18.5"/>
		<path class="st2" d="M125.772,719.7c0,10.218,8.283,18.5,18.5,18.5"/>
		<path class="st2" d="M162.772,719.7c0,10.218-8.283,18.5-18.5,18.5"/>
		<path class="st2" d="M162.772,719.7c0,10.218,8.283,18.5,18.5,18.5"/>
	</g>
	<g>
		<path class="st2" d="M92.855,990.698c0,10.217-8.283,18.5-18.5,18.5"/>
		<path class="st2" d="M92.855,990.698c0,10.217,8.283,18.5,18.5,18.5"/>
		<path class="st2" d="M129.855,990.698c0,10.217-8.283,18.5-18.5,18.5"/>
		<path class="st2" d="M129.855,990.698c0,10.217,8.283,18.5,18.5,18.5"/>
		<path class="st2" d="M148.355,1009.198"/>
	</g>
	<g>
		<path class="st2" d="M323.314,798.125c0,10.216-8.283,18.5-18.5,18.5"/>
		<path class="st2" d="M323.314,798.125c0,10.216,8.283,18.5,18.5,18.5"/>
		<path class="st2" d="M360.314,798.125c0,10.216-8.283,18.5-18.5,18.5"/>
		<path class="st2" d="M360.314,798.125c0,10.216,8.283,18.5,18.5,18.5"/>
		<path class="st2" d="M378.814,816.625"/>
	</g>
	<line class="st4" x1="233" y1="552.757" x2="295.085" y2="552.757"/>
	<line class="st4" x1="233" y1="586.507" x2="295.085" y2="586.507"/>
	<line class="st4" x1="233" y1="637.132" x2="295.085" y2="637.132"/>
	<line class="st4" x1="233" y1="620.257" x2="295.085" y2="620.257"/>
	<line class="st2" x1="1609.267" y1="687.019" x2="1921" y2="687.019"/>
	<rect x="521.868" y="222.548" class="st2" width="940.382" height="464.654"/>
	<rect x="1194.826" y="800" class="st2" width="56.174" height="283.548"/>
	<path class="st2" d="M295.085,405.613v-90.397c0-51.179,41.489-92.668,92.669-92.668H402h119.868V0"/>
	<path class="st2" d="M1621.606,687.019c51.178,0,92.668,41.488,92.668,92.668v14.246v119.869v169.746"/>
	<path class="st2" d="M738.068,806.895h75.925c42.985,0,77.833,34.849,77.833,77.834v11.966v100.677"/>
	<path class="st2" d="M1367.566,222.548h-90.397c-51.179,0-92.668-41.49-92.668-92.67v-14.246V3.086"/>
	<polyline class="st2" points="1462.25,687.019 1462.25,223.011 1609.267,223.011 1609.267,687.019 	"/>
	<line class="st2" x1="1068" y1="774.548" x2="1068" y2="760.332"/>
	<line class="st2" x1="756.667" y1="736.402" x2="756.667" y2="722.187"/>
	<line class="st2" x1="864.532" y1="722.187" x2="864.532" y2="707.971"/>
	<line class="st2" x1="872.667" y1="774.548" x2="872.667" y2="760.332"/>
	<line class="st2" x1="822.667" y1="788.764" x2="822.667" y2="774.548"/>
	<line class="st2" x1="766.865" y1="779.401" x2="766.865" y2="765.186"/>
	<line class="st2" x1="1165" y1="772.295" x2="1165" y2="758.078"/>
	<line class="st2" x1="1073.197" y1="722.187" x2="1073.197" y2="707.971"/>
	<line class="st2" x1="1108.333" y1="785.784" x2="1108.333" y2="771.568"/>
	<rect x="1089.165" y="860.785" class="st2" width="57.855" height="19.076"/>
	<line class="st2" x1="1089.165" y1="903.785" x2="1089.165" y2="879.861"/>
	<line class="st2" x1="1147.021" y1="903.785" x2="1147.021" y2="879.861"/>
	<line class="st2" x1="1068" y1="906.039" x2="1068" y2="891.823"/>
	<rect x="1089.165" y="992.171" class="st2" width="57.855" height="19.076"/>
	<line class="st2" x1="1089.165" y1="1035.171" x2="1089.165" y2="1011.247"/>
	<line class="st2" x1="1147.021" y1="1035.171" x2="1147.021" y2="1011.247"/>
	<line class="st2" x1="1174.125" y1="1063.605" x2="1174.125" y2="1049.39"/>
	<line class="st2" x1="1165" y1="1035.171" x2="1165" y2="1020.955"/>
	<line class="st2" x1="1179.322" y1="1011.244" x2="1179.322" y2="997.028"/>
	<line class="st2" x1="1108.333" y1="1048.661" x2="1108.333" y2="1034.445"/>
	<line class="st2" x1="1174.5" y1="729.295" x2="1174.5" y2="715.079"/>
	<path class="st2" d="M1408.404,291.867c0,5.71-4.631,10.342-10.341,10.342h-17.186c-5.71,0-10.341-4.632-10.341-10.342l0,0
		c0-5.712,4.631-10.343,10.341-10.343h17.186C1403.773,281.524,1408.404,286.155,1408.404,291.867L1408.404,291.867z"/>
	<path class="st2" d="M732.5,383.798c0,2.899-2.351,5.25-5.25,5.25h-9.5c-2.899,0-5.25-2.351-5.25-5.25l0,0
		c0-2.899,2.351-5.25,5.25-5.25h9.5C730.149,378.548,732.5,380.898,732.5,383.798L732.5,383.798z"/>
	<circle class="st2" cx="1252.426" cy="321.316" r="44.245"/>
	<path class="st2" d="M1386,347.087c0,11.75-9.525,21.275-21.275,21.275h-86.449c-11.75,0-21.275-9.525-21.275-21.275l0,0
		c0-11.75,9.525-21.275,21.275-21.275h86.449C1376.475,325.812,1386,335.337,1386,347.087L1386,347.087z"/>
	<line class="st2" x1="1252.426" y1="266.881" x2="1252.426" y2="252.215"/>
	<line class="st2" x1="1209.684" y1="281.524" x2="1199.312" y2="271.153"/>
	<line class="st2" x1="1209.684" y1="355.007" x2="1199.312" y2="365.378"/>
	<line class="st2" x1="1293.459" y1="281.524" x2="1303.83" y2="271.153"/>
	<line class="st2" x1="1252.426" y1="391.881" x2="1252.426" y2="377.215"/>
	<line class="st2" x1="1196.998" y1="321.315" x2="1177.665" y2="321.315"/>
	<line class="st2" x1="295.085" y1="473.622" x2="521.868" y2="473.622"/>
	<path class="st2" d="M521.868,604.298"/>
	<path class="st2" d="M295.085,604.298"/>
	<g>
		<path class="st2" d="M338,358.136c0,6.259-5.074,11.333-11.333,11.333l0,0c-6.259,0-11.333-5.074-11.333-11.333v-13.878
			c0-6.259,5.074-11.333,11.333-11.333l0,0c6.259,0,11.333,5.074,11.333,11.333V358.136z"/>
		<g>
			<line class="st2" x1="328.625" y1="347.612" x2="316.45" y2="340.361"/>
			<line class="st2" x1="337.275" y1="340.36" x2="325.547" y2="347.612"/>
		</g>
		<g>
			<line class="st2" x1="328.625" y1="359.75" x2="316.45" y2="352.499"/>
			<line class="st2" x1="337.275" y1="352.498" x2="325.547" y2="359.75"/>
		</g>
		<polyline class="st2" points="326.667,473.622 326.667,369.469 326.667,332.925 		"/>
	</g>
	<g>
		<path class="st2" d="M392.333,358.136c0,6.259-5.074,11.333-11.333,11.333l0,0c-6.259,0-11.333-5.074-11.333-11.333v-13.878
			c0-6.259,5.074-11.333,11.333-11.333l0,0c6.259,0,11.333,5.074,11.333,11.333V358.136z"/>
		<g>
			<line class="st2" x1="382.958" y1="347.612" x2="370.783" y2="340.361"/>
			<line class="st2" x1="391.608" y1="340.36" x2="379.88" y2="347.612"/>
		</g>
		<g>
			<line class="st2" x1="382.958" y1="359.75" x2="370.783" y2="352.499"/>
			<line class="st2" x1="391.608" y1="352.498" x2="379.88" y2="359.75"/>
		</g>
		<polyline class="st2" points="381,473.622 381,369.469 381,332.925 		"/>
	</g>
	<g>
		<path class="st2" d="M445.333,358.136c0,6.259-5.074,11.333-11.333,11.333l0,0c-6.259,0-11.333-5.074-11.333-11.333v-13.878
			c0-6.259,5.074-11.333,11.333-11.333l0,0c6.259,0,11.333,5.074,11.333,11.333V358.136z"/>
		<g>
			<line class="st2" x1="435.958" y1="347.612" x2="423.783" y2="340.361"/>
			<line class="st2" x1="444.608" y1="340.36" x2="432.88" y2="347.612"/>
		</g>
		<g>
			<line class="st2" x1="435.958" y1="359.75" x2="423.783" y2="352.499"/>
			<line class="st2" x1="444.608" y1="352.498" x2="432.88" y2="359.75"/>
		</g>
		<polyline class="st2" points="434,473.622 434,369.469 434,332.925 		"/>
	</g>
	<g>
		<path class="st2" d="M496.833,358.136c0,6.259-5.074,11.333-11.333,11.333l0,0c-6.259,0-11.334-5.074-11.334-11.333v-13.878
			c0-6.259,5.074-11.333,11.334-11.333l0,0c6.259,0,11.333,5.074,11.333,11.333V358.136z"/>
		<g>
			<line class="st2" x1="487.458" y1="347.612" x2="475.283" y2="340.361"/>
			<line class="st2" x1="496.108" y1="340.36" x2="484.38" y2="347.612"/>
		</g>
		<g>
			<line class="st2" x1="487.458" y1="359.75" x2="475.283" y2="352.499"/>
			<line class="st2" x1="496.108" y1="352.498" x2="484.38" y2="359.75"/>
		</g>
		<polyline class="st2" points="485.5,473.622 485.5,369.469 485.5,332.925 		"/>
	</g>
	<polyline class="st2" points="845.99,333.035 856.406,345.702 867.764,333.035 	"/>
	<polyline class="st2" points="815.826,298.215 826.243,310.882 837.6,298.215 	"/>
	<path class="st2" d="M364.094,519.131c0,2.762-2.239,5-5,5h-35c-2.761,0-5-2.238-5-5v-21.333c0-2.762,2.239-5,5-5h35
		c2.761,0,5,2.238,5,5V519.131z"/>
	<line class="st2" x1="367.093" y1="494.63" x2="367.093" y2="506.63"/>
	<rect x="325.594" y="524.131" class="st2" width="31.976" height="162.071"/>
	<path class="st2" d="M424.88,546.564c0,2.762-2.239,5-5,5h-35c-2.761,0-5-2.238-5-5v-21.333c0-2.762,2.239-5,5-5h35
		c2.761,0,5,2.238,5,5V546.564z"/>
	<line class="st2" x1="391.713" y1="520.231" x2="391.713" y2="530.063"/>
	<line class="st2" x1="402.963" y1="520.231" x2="402.963" y2="530.063"/>
	<line class="st2" x1="414.213" y1="520.231" x2="414.213" y2="530.063"/>
	<line class="st2" x1="427.879" y1="522.063" x2="427.879" y2="534.063"/>
	<rect x="386.38" y="551.564" class="st2" width="31.976" height="134.638"/>
	<path class="st2" d="M489.166,530.564c0,2.762-2.239,5-5,5h-35c-2.761,0-5-2.238-5-5v-21.333c0-2.762,2.239-5,5-5h35
		c2.761,0,5,2.238,5,5V530.564z"/>
	<line class="st2" x1="455.999" y1="504.231" x2="455.999" y2="514.063"/>
	<line class="st2" x1="467.249" y1="504.231" x2="467.249" y2="514.063"/>
	<line class="st2" x1="478.499" y1="504.231" x2="478.499" y2="514.063"/>
	<line class="st2" x1="492.166" y1="506.063" x2="492.166" y2="518.063"/>
	<rect x="450.667" y="535.564" class="st2" width="31.976" height="150.817"/>
	<line class="st2" x1="891.826" y1="596.132" x2="739.826" y2="596.132"/>
	<line class="st2" x1="1195.359" y1="596.132" x2="1043.359" y2="596.132"/>
	<circle class="st2" cx="495.085" cy="807.375" r="12"/>
	<circle class="st2" cx="495.085" cy="920.548" r="12"/>
	<circle class="st2" cx="521.868" cy="687.202" r="12"/>
	<circle class="st2" cx="738.068" cy="807.375" r="12"/>
	<circle class="st2" cx="521.868" cy="222.548" r="12"/>
	<circle class="st2" cx="1462.25" cy="222.548" r="12"/>
	<circle class="st2" cx="1462.25" cy="687.202" r="12"/>
	<circle class="st2" cx="1609.267" cy="687.202" r="12"/>
	<rect x="1342.566" y="639.254" class="st2" width="26.171" height="29.312"/>
	<line class="st5" x1="1350.811" y1="668.565" x2="1350.811" y2="686.754"/>
	<polyline class="st2" points="1361.541,668.565 1361.541,677.659 1368.737,681.168 	"/>
	<circle class="st2" cx="1355.652" cy="627.39" r="6.63"/>
	<g>
		<circle class="st2" cx="721.5" cy="141.073" r="12"/>
		<polygon class="st1" points="692.431,141.073 604.608,141.073 599.608,118.548 692.431,118.548 		"/>
		<polygon class="st1" points="692.431,118.548 599.608,118.548 613.608,90.215 678.431,90.215 		"/>
		<rect x="692.431" y="118.548" class="st1" width="52.569" height="22.525"/>
		<polygon class="st1" points="728.215,118.548 692.431,118.548 678,90.215 709.215,90.215 		"/>
		<rect x="701.375" y="118.548" class="st2" width="8.125" height="7"/>
		<rect x="730" y="118.548" class="st2" width="8.125" height="7"/>
		<circle class="st2" cx="624.5" cy="141.073" r="12"/>
		<circle class="st2" cx="670.581" cy="141.073" r="12"/>
	</g>
	<rect x="612.269" y="1030.011" class="st2" width="13.02" height="11.91"/>
	<rect x="612.269" y="1041.921" class="st2" width="13.02" height="17.674"/>
	<g>
		<line class="st6" x1="560" y1="172.548" x2="1151" y2="172.548"/>
		<g>
			<line class="st7" x1="560" y1="172.548" x2="581" y2="172.548"/>
			<line class="st8" x1="623.23" y1="172.548" x2="1108.885" y2="172.548"/>
			<line class="st7" x1="1130" y1="172.548" x2="1151" y2="172.548"/>
		</g>
	</g>
	<path class="st2" d="M716.25,1043.673c0,5.454-4.421,9.875-9.875,9.875h-26.25c-5.454,0-9.875-4.421-9.875-9.875l0,0
		c0-5.454,4.421-9.875,9.875-9.875h26.25C711.829,1033.798,716.25,1038.219,716.25,1043.673L716.25,1043.673z"/>
	<path class="st2" d="M676,1026.985c0,3.763-3.05,6.812-6.812,6.812h-9.029c-3.763,0-6.812-3.05-6.812-6.812l0,0
		c0-3.763,3.05-6.812,6.812-6.812h9.029C672.95,1020.173,676,1023.223,676,1026.985L676,1026.985z"/>
	<path class="st1" d="M674.891,1033.896c0,2.563-2.077,4.64-4.64,4.64l0,0c-2.563,0-4.641-2.076-4.641-4.64v-9.082
		c0-2.564,2.078-4.641,4.641-4.641l0,0c2.563,0,4.64,2.077,4.64,4.641V1033.896z"/>
	<line class="st9" x1="680.5" y1="1061.548" x2="680.5" y2="1053.548"/>
	<line class="st9" x1="688.75" y1="1061.548" x2="688.75" y2="1053.548"/>
	<line class="st9" x1="708.25" y1="1061.548" x2="708.25" y2="1053.548"/>
	<line class="st9" x1="701" y1="1061.548" x2="701" y2="1053.548"/>
	<g>
		<circle class="st1" cx="1104.667" cy="129.073" r="20.025"/>
		<polygon class="st2" points="1044,129.073 894,129.073 894,92.379 894,33.212 1019.545,33.212 1044,91.88 		"/>
		<polygon class="st2" points="1138.666,92.38 1044,92.38 1019,33.212 1111.666,33.212 		"/>
		<rect x="1044" y="91.88" class="st1" width="94.666" height="37.193"/>
		<rect x="1058.75" y="101.214" class="st2" width="16.25" height="14.168"/>
		<rect x="1111.584" y="101.214" class="st2" width="16.25" height="14.168"/>
		<rect x="894" y="91.88" class="st2" width="150" height="11.335"/>
		<line class="st10" x1="1035.447" y1="72.138" x2="1129.028" y2="72.138"/>
		<rect x="1083.334" y="105.547" class="st2" width="21.333" height="7"/>
		<circle class="st2" cx="930.561" cy="129.073" r="20.025"/>
		<circle class="st2" cx="1015.422" cy="129.073" r="20.025"/>
		<rect x="930.561" y="46.215" class="st2" width="29.714" height="24.334"/>
		<rect x="894" y="46.215" class="st2" width="25.333" height="24.334"/>
		<rect x="975.393" y="46.215" class="st2" width="29.715" height="24.334"/>
		<rect x="880.75" y="118.548" class="st2" width="13.25" height="10.525"/>
	</g>
	<rect x="772" y="3.548" class="st2" width="48" height="107"/>
	<line class="st11" x1="1609.267" y1="568.658" x2="1921" y2="568.658"/>
	<line class="st11" x1="1609.267" y1="456.882" x2="1921" y2="456.882"/>
	<g>
		<g>
			<path class="st2" d="M341.188,386.487v10.982c0,7.639,6.191,13.83,13.83,13.83l0,0"/>
			<path class="st2" d="M354.703,411.3L354.703,411.3c7.638,0,13.83-6.191,13.83-13.83v-10.982"/>
			<path class="st2" d="M341.188,386.487c0,0,13.672,3.281,13.672,23.838"/>
			<path class="st2" d="M368.55,386.526c-1.461,0.422-13.528,4.487-13.528,23.799"/>
			<path class="st2" d="M368.694,386.487c0,0-0.05,0.012-0.144,0.039"/>
			<line class="st2" x1="354.86" y1="412.259" x2="354.86" y2="473.622"/>
		</g>
		<path class="st2" d="M348.194,390.309c1.341-2.286,3.824-3.821,6.666-3.821c2.808,0,5.266,1.498,6.617,3.738"/>
	</g>
	<g>
		<g>
			<path class="st2" d="M392.333,386.487v10.982c0,7.639,6.191,13.83,13.83,13.83l0,0"/>
			<path class="st2" d="M405.848,411.3L405.848,411.3c7.638,0,13.83-6.191,13.83-13.83v-10.982"/>
			<path class="st2" d="M392.333,386.487c0,0,13.672,3.281,13.672,23.838"/>
			<path class="st2" d="M419.695,386.526c-1.461,0.422-13.528,4.487-13.528,23.799"/>
			<path class="st2" d="M419.839,386.487c0,0-0.05,0.012-0.144,0.039"/>
			<line class="st2" x1="406.005" y1="412.259" x2="406.005" y2="473.622"/>
		</g>
		<path class="st2" d="M399.339,390.309c1.341-2.286,3.824-3.821,6.666-3.821c2.808,0,5.266,1.498,6.617,3.738"/>
	</g>
	<g>
		<g>
			<path class="st2" d="M445.333,386.487v10.982c0,7.639,6.191,13.83,13.83,13.83l0,0"/>
			<path class="st2" d="M458.848,411.3L458.848,411.3c7.638,0,13.83-6.191,13.83-13.83v-10.982"/>
			<path class="st2" d="M445.333,386.487c0,0,13.672,3.281,13.672,23.838"/>
			<path class="st2" d="M472.695,386.526c-1.461,0.422-13.528,4.487-13.528,23.799"/>
			<path class="st2" d="M472.839,386.487c0,0-0.05,0.012-0.144,0.039"/>
			<line class="st2" x1="459.005" y1="412.259" x2="459.005" y2="473.622"/>
		</g>
		<path class="st2" d="M452.339,390.309c1.341-2.286,3.824-3.821,6.666-3.821c2.808,0,5.266,1.498,6.617,3.738"/>
	</g>
	<line class="st2" x1="1358.715" y1="647.546" x2="1358.715" y2="659.404"/>
	<rect x="1387.852" y="639.254" class="st2" width="26.171" height="29.312"/>
	<line class="st5" x1="1396.096" y1="668.565" x2="1396.096" y2="686.754"/>
	<line class="st2" x1="1406.826" y1="668.565" x2="1406.826" y2="686.754"/>
	<circle class="st2" cx="1400.937" cy="627.39" r="6.63"/>
	<line class="st2" x1="1404" y1="647.546" x2="1404" y2="659.404"/>
	<rect x="1688.853" y="351.842" class="st2" width="26.171" height="29.312"/>
	<line class="st5" x1="1697.097" y1="381.153" x2="1697.097" y2="399.342"/>
	<polyline class="st2" points="1707.827,381.153 1707.827,390.247 1715.023,393.755 	"/>
	<circle class="st2" cx="1701.938" cy="339.978" r="6.63"/>
	<line class="st2" x1="1705.001" y1="360.134" x2="1715.023" y2="339.978"/>
	<rect x="1734.138" y="351.842" class="st2" width="26.171" height="29.312"/>
	<line class="st5" x1="1742.382" y1="381.153" x2="1742.382" y2="399.342"/>
	<line class="st2" x1="1753.112" y1="381.153" x2="1753.112" y2="399.342"/>
	<circle class="st2" cx="1747.223" cy="339.978" r="6.63"/>
	<line class="st2" x1="1750.286" y1="360.134" x2="1750.286" y2="371.992"/>
	<rect x="1786.86" y="351.842" class="st2" width="26.171" height="29.312"/>
	<line class="st5" x1="1795.104" y1="381.153" x2="1795.104" y2="399.342"/>
	<polyline class="st2" points="1805.835,381.153 1805.835,390.247 1813.031,393.755 	"/>
	<circle class="st2" cx="1799.946" cy="339.978" r="6.63"/>
	<line class="st2" x1="1803.009" y1="360.134" x2="1803.009" y2="371.992"/>
	<rect x="1832.146" y="351.842" class="st2" width="26.171" height="29.312"/>
	<line class="st5" x1="1840.39" y1="381.153" x2="1840.39" y2="399.342"/>
	<line class="st2" x1="1851.12" y1="381.153" x2="1851.12" y2="399.342"/>
	<circle class="st2" cx="1845.231" cy="339.978" r="6.63"/>
	<line class="st2" x1="1848.294" y1="360.134" x2="1848.294" y2="371.992"/>
	<rect x="607.724" y="639.254" class="st2" width="26.171" height="29.312"/>
	<line class="st5" x1="625.65" y1="668.565" x2="625.65" y2="686.754"/>
	<polyline class="st2" points="614.92,668.565 614.92,677.659 607.724,681.168 	"/>
	<circle class="st2" cx="620.809" cy="627.39" r="6.63"/>
	<line class="st2" x1="617.746" y1="647.546" x2="617.746" y2="659.404"/>
	<rect x="562.438" y="639.254" class="st2" width="26.171" height="29.312"/>
	<line class="st5" x1="580.365" y1="668.565" x2="580.365" y2="686.754"/>
	<line class="st2" x1="569.635" y1="668.565" x2="569.635" y2="686.754"/>
	<circle class="st2" cx="575.524" cy="627.39" r="6.63"/>
	<line class="st2" x1="572.461" y1="647.546" x2="572.461" y2="659.404"/>
	<line class="st2" x1="1351.336" y1="936.747" x2="1351.336" y2="1083.548"/>
	<g>
		<defs>
			<rect id="SVGID_2_" x="1234.001" y="760.332" width="142.059" height="209.109"/>
		</defs>
		<clipPath id="SVGID_3_">
			<use xlink:href="#SVGID_2_"  style="overflow:visible;"/>
		</clipPath>
		<path class="st12" d="M1390.638,850.441c-4.036-4.275-3.261-9.971-2.567-12.683c1.315-3.425,2.044-7.142,2.044-11.03
			c0-16.999-13.781-30.78-30.78-30.78c-17,0-30.781,13.781-30.781,30.78c0,3.304,0.526,6.483,1.49,9.467l-0.006-0.002
			c0,0,0.016,0.038,0.042,0.11c0.065,0.2,0.133,0.398,0.202,0.597c0.695,2.219,2.314,9.2-2.819,14.031
			c-0.28,0.242-0.564,0.479-0.84,0.728c-0.017,0.014-0.032,0.028-0.05,0.042l0.001,0.001c-9.871,8.935-16.073,21.849-16.073,36.211
			c0,26.971,21.863,48.834,48.834,48.834c26.969,0,48.833-21.863,48.833-48.834C1408.167,872.858,1401.35,859.399,1390.638,850.441z
			"/>
		<use xlink:href="#SVGID_2_"  style="overflow:visible;fill:none;stroke:#2D2D2D;stroke-miterlimit:10;"/>
	</g>
	<polyline class="st2" points="1376.06,1081.514 1376.06,800.377 1376.06,687.546 	"/>
	<path class="st2" d="M1558.689,243.75c6.822,3.073,8.876,13.293,4.584,22.823c-4.293,9.529-13.306,14.765-20.129,11.692
		L1558.689,243.75z"/>
	<path class="st2" d="M1516.308,242.75c-6.822,3.073-8.876,13.293-4.584,22.823c4.293,9.529,13.306,14.765,20.129,11.692
		L1516.308,242.75z"/>
	<line class="st2" x1="1600.5" y1="223.011" x2="1921" y2="223.011"/>
	<polygon class="st2" points="557.292,64.252 551.462,46.307 566.726,35.217 581.99,46.307 576.16,64.252 	"/>
	<line class="st5" x1="565.333" y1="64.252" x2="565.333" y2="110.548"/>
	<line class="st5" x1="1726.417" y1="222.548" x2="1726.417" y2="3.548"/>
	<circle class="st2" cx="1609.267" cy="222.548" r="12"/>
	<circle class="st2" cx="1609.267" cy="456.882" r="12"/>
	<line class="st2" x1="1689.912" y1="351.842" x2="1682.162" y2="334.922"/>
	<line class="st2" x1="1679.729" y1="343.382" x2="1694.836" y2="299.215"/>
	
		<rect x="1688.396" y="269.943" transform="matrix(0.4237 -0.9058 0.9058 0.4237 715.9317 1706.2054)" class="st2" width="21" height="40.999"/>
	<path class="st2" d="M131.247,929.045v-45.398c0-11.372,9.218-20.59,20.59-20.59c11.372,0,20.59,9.218,20.59,20.59v45.398"/>
	<path class="st2" d="M110.176,929.95v-48.042c0-23.156,18.772-41.929,41.93-41.929c23.157,0,41.93,18.773,41.93,41.929v48.042"/>
	<line class="st2" x1="1609.267" y1="399.342" x2="1921" y2="399.342"/>
	<g>
		<defs>
			<rect id="SVGID_1_" x="1186.501" y="19.216" width="535.412" height="145.333"/>
		</defs>
		<clipPath id="SVGID_4_">
			<use xlink:href="#SVGID_1_"  style="overflow:visible;"/>
		</clipPath>
		<g class="st13">
			<g>
				<polygon class="st2" points="1597.833,140.311 1525.799,140.311 1525.799,103.616 1525.799,44.449 1590.833,44.449 
					1604.833,103.117 				"/>
				<polygon class="st2" points="1699.499,103.617 1604.833,103.617 1590.833,44.449 1683.499,44.449 				"/>
				<polygon class="st1" points="1692.499,140.311 1597.833,140.311 1604.833,103.117 1699.499,103.117 				"/>
			</g>
			<polygon class="st2" points="1676.883,103.117 1629.833,103.117 1614.833,44.449 1661.883,44.449 			"/>
			<rect x="1547.216" y="57.12" class="st2" width="27" height="71.333"/>
			<rect x="1138.884" y="44.449" class="st2" width="386.915" height="95.861"/>
			<polygon class="st2" points="1626.218,140.311 1628.718,128.453 1674.384,128.453 1671.884,140.311 			"/>
			<circle class="st2" cx="1615.884" cy="117.286" r="4.167"/>
			<circle class="st2" cx="1684.994" cy="117.286" r="4.167"/>
			<path class="st2" d="M1677.18,103.117c0,7.821-10.666,14.161-23.828,14.161c-13.159,0-23.826-6.34-23.826-14.161"/>
			<rect x="1435.883" y="57.12" class="st2" width="67" height="71.333"/>
			<line class="st2" x1="1469.383" y1="57.12" x2="1469.383" y2="128.453"/>
			<rect x="1443.216" y="65.786" class="st2" width="18.334" height="31.333"/>
			<rect x="1476.882" y="65.786" class="st2" width="18.334" height="31.333"/>
			<rect x="1245.883" y="57.12" class="st2" width="67" height="71.333"/>
			<line class="st2" x1="1279.383" y1="57.12" x2="1279.383" y2="128.453"/>
			<rect x="1253.216" y="65.786" class="st2" width="18.334" height="31.333"/>
			<rect x="1286.882" y="65.786" class="st2" width="18.334" height="31.333"/>
			<rect x="1555.717" y="65.786" class="st2" width="10.333" height="28.333"/>
			<rect x="1332.341" y="57.12" class="st2" width="77.209" height="39.999"/>
			<line class="st2" x1="1332.341" y1="81.453" x2="1409.55" y2="81.453"/>
			<rect x="1153.341" y="57.12" class="st2" width="77.209" height="39.999"/>
			<line class="st2" x1="1153.341" y1="81.453" x2="1230.55" y2="81.453"/>
		</g>
		<use xlink:href="#SVGID_1_"  style="overflow:visible;fill:none;stroke:#2D2D2D;stroke-miterlimit:10;"/>
	</g>
	<path class="st2" d="M1086.39,825.612c0.531-0.043,1.068-0.065,1.61-0.065h62c11.046,0,20,8.954,20,20v51.727v8.764"/>
	<line class="st2" x1="1104.25" y1="825.548" x2="1104.25" y2="810.548"/>
	<line class="st2" x1="1170" y1="855.048" x2="1178.25" y2="855.048"/>
	<circle class="st2" cx="1077.379" cy="826.195" r="9.568"/>
	<circle class="st2" cx="1104.25" cy="806.548" r="5.917"/>
	<line class="st2" x1="1129.833" y1="825.548" x2="1129.833" y2="835.056"/>
	<circle class="st2" cx="1129.833" cy="837.591" r="3.75"/>
	<circle class="st2" cx="1180.25" cy="855.048" r="3.915"/>
	<line class="st2" x1="1164.818" y1="832.116" x2="1177.16" y2="819.223"/>
	
		<ellipse transform="matrix(0.7072 -0.707 0.707 0.7072 -233.1043 1072.7808)" class="st2" cx="1178.574" cy="817.808" rx="3.915" ry="3.915"/>
	<polygon class="st2" points="366.499,961.548 194.035,961.548 194.035,929.95 376.499,929.95 	"/>
	<polygon class="st2" points="194.035,961.548 111.176,961.548 104.176,929.95 194.035,929.95 	"/>
	<rect x="103" y="809.215" class="st2" width="100.666" height="16.999"/>
	<circle class="st2" cx="121.757" cy="875.125" r="3.167"/>
	<circle class="st2" cx="133.247" cy="858.031" r="3.167"/>
	<circle class="st2" cx="183.155" cy="875.125" r="3.167"/>
	<circle class="st2" cx="171.666" cy="858.031" r="3.167"/>
	<circle class="st2" cx="152.105" cy="850.753" r="3.167"/>
	<polygon class="st2" points="152.105,826.404 158.656,826.404 155.38,832.077 152.105,837.75 148.831,832.077 145.555,826.404 	"/>
	<g>
		<path class="st2" d="M304.814,984.757c0,10.217-8.283,18.5-18.5,18.5"/>
		<path class="st2" d="M304.814,984.757c0,10.217,8.283,18.5,18.5,18.5"/>
		<path class="st2" d="M341.814,984.757c0,10.217-8.283,18.5-18.5,18.5"/>
		<path class="st2" d="M341.814,984.757c0,10.217,8.283,18.5,18.5,18.5"/>
		<path class="st2" d="M378.814,984.757c0,10.217-8.283,18.5-18.5,18.5"/>
		<path class="st2" d="M378.814,984.757c0,10.217,8.283,18.5,18.5,18.5"/>
		<path class="st2" d="M415.814,984.757c0,10.217-8.283,18.5-18.5,18.5"/>
		<path class="st2" d="M415.814,984.757c0,10.217,8.283,18.5,18.5,18.5"/>
	</g>
	<line class="st2" x1="1695.4" y1="124.895" x2="1727.166" y2="124.895"/>
	<line class="st2" x1="110.176" y1="881.908" x2="110.176" y2="826.214"/>
	<line class="st2" x1="194.035" y1="881.908" x2="194.035" y2="826.214"/>
	<path class="st2" d="M194.834,839.979h161.665c11.046,0,20,8.954,20,20v11.979H194.834"/>
	<line class="st2" x1="369.564" y1="871.959" x2="369.564" y2="929.045"/>
	<line class="st10" x1="194.834" y1="911.048" x2="369.564" y2="911.048"/>
</g>
</svg>