<!-- Generator: Adobe Illustrator 19.2.1, SVG Export Plug-In  -->
<svg version="1.1"
	 xmlns="http://www.w3.org/2000/svg" xmlns:xlink="http://www.w3.org/1999/xlink" xmlns:a="http://ns.adobe.com/AdobeSVGViewerExtensions/3.0/"
	 x="0px" y="0px" width="502.123px" height="350.161px" viewBox="0 0 502.123 350.161"
	 style="enable-background:new 0 0 502.123 350.161;" xml:space="preserve">
<style type="text/css">
	.st0{fill:#1A2042;}
</style>
<defs>
</defs>
<g>
	<path class="st0" d="M7.809,10.27h32.47c15.618,0,28.359,12.741,28.359,28.359c0,15.516-12.639,28.257-27.949,28.257H28.051v20.448
		H7.809V10.27z M28.051,49.418h12.536c6.165,0,11.097-4.829,11.097-10.994s-4.932-11.098-11.097-11.098H28.051V49.418z"/>
	<path class="st0" d="M121.552,10.27c21.27,0,38.532,17.365,38.532,38.635s-17.262,38.43-38.532,38.43
		c-21.27,0-38.429-17.16-38.429-38.43S100.282,10.27,121.552,10.27z M121.552,30.409c-10.07,0-18.29,8.22-18.29,18.393
		c0,10.069,8.22,18.393,18.29,18.393c10.173,0,18.393-8.323,18.393-18.393C139.945,38.629,131.725,30.409,121.552,30.409z"/>
	<path class="st0" d="M223.99,87.334l-11.919-20.448h-12.536v20.448h-20.242V10.27h32.47c15.618,0,28.359,12.741,28.359,28.359
		c0,8.221-3.596,15.619-9.145,20.757l16.338,27.948H223.99z M199.535,49.418h12.536c6.165,0,11.097-4.829,11.097-10.994
		s-4.932-11.098-11.097-11.098h-12.536V49.418z"/>
	<path class="st0" d="M324.065,87.334l-5.343-5.24c-5.651,3.391-12.331,5.24-19.317,5.24c-21.27,0-38.532-17.263-38.532-38.532
		s17.262-38.532,38.532-38.532c21.27,0,38.532,17.263,38.532,38.532c0,6.987-1.85,13.461-5.138,19.112l19.523,19.42H324.065z
		 M299.405,67.194c1.335,0,2.671-0.103,3.904-0.411l-9.453-9.453l14.283-14.18l9.248,9.248c0.206-1.131,0.309-2.261,0.309-3.494
		c0-10.275-8.015-18.29-18.29-18.29c-10.275,0-18.29,8.015-18.29,18.29S289.129,67.194,299.405,67.194z"/>
	<path class="st0" d="M381.397,56.611c0,5.548,4.521,10.069,10.07,10.069c5.549,0,10.07-4.521,10.07-10.069V10.27h20.345v46.649
		c0,16.954-13.666,30.415-30.415,30.415c-16.954,0-30.415-13.461-30.415-30.415V10.27h20.345V56.611z"/>
	<path class="st0" d="M442.427,10.27h47.883v16.749h-27.641v12.535h24.456v17.058h-24.456v14.18h27.641v16.543h-47.883V10.27z"/>
	<path class="st0" d="M2.671,210.631l35.963-77.064h9.145l36.272,77.064H63.81l-4.727-10.069H27.538l-4.624,10.069H2.671z
		 M35.45,183.504h15.721l-7.809-16.954L35.45,183.504z"/>
	<path class="st0" d="M144.465,159.049c-3.186-3.186-7.707-5.035-12.947-5.035c-10.48,0-18.084,7.604-18.084,18.085
		s7.604,18.084,18.084,18.084c5.241,0,9.762-1.849,12.947-5.137l14.385,14.18c-6.987,6.987-16.646,11.405-27.333,11.405
		c-21.27,0-38.532-17.263-38.532-38.532s17.263-38.532,38.532-38.532c10.583,0,20.14,4.213,27.127,11.2L144.465,159.049z"/>
	<path class="st0" d="M176.725,133.464h60.727v20.14h-20.448v57.027h-20.242v-57.027h-20.037V133.464z"/>
	<path class="st0" d="M276.802,179.908c0,5.548,4.521,10.069,10.07,10.069c5.549,0,10.07-4.521,10.07-10.069v-46.342h20.345v46.649
		c0,16.954-13.666,30.415-30.415,30.415c-16.954,0-30.415-13.461-30.415-30.415v-46.649h20.345V179.908z"/>
	<path class="st0" d="M329.612,210.631l35.964-77.064h9.145l36.272,77.064H390.75l-4.727-10.069h-31.545l-4.624,10.069H329.612z
		 M362.391,183.504h15.721l-7.809-16.954L362.391,183.504z"/>
	<path class="st0" d="M471.098,210.631l-11.919-20.448h-12.536v20.448H426.4v-77.064h32.47c15.618,0,28.359,12.741,28.359,28.359
		c0,8.221-3.596,15.619-9.145,20.757l16.338,27.948H471.098z M446.642,172.715h12.536c6.165,0,11.097-4.829,11.097-10.994
		s-4.932-11.098-11.097-11.098h-12.536V172.715z"/>
	<path class="st0" d="M2.671,333.927l35.963-77.064h9.145l36.272,77.064H63.81l-4.727-10.069H27.538l-4.624,10.069H2.671z
		 M35.45,306.8h15.721l-7.809-16.954L35.45,306.8z"/>
	<path class="st0" d="M119.701,256.862v27.435h24.456v-27.435h20.242v77.064h-20.242v-29.388h-24.456v29.388H99.459v-77.064H119.701
		z"/>
	<path class="st0" d="M221.935,256.862c21.27,0,38.532,17.365,38.532,38.635s-17.262,38.43-38.532,38.43
		c-21.27,0-38.429-17.16-38.429-38.43S200.665,256.862,221.935,256.862z M221.935,277.002c-10.07,0-18.29,8.22-18.29,18.393
		c0,10.069,8.22,18.393,18.29,18.393c10.173,0,18.393-8.323,18.393-18.393C240.328,285.222,232.107,277.002,221.935,277.002z"/>
	<path class="st0" d="M324.373,333.927l-11.919-20.448h-12.536v20.448h-20.242v-77.064h32.47c15.618,0,28.359,12.741,28.359,28.359
		c0,8.221-3.596,15.619-9.145,20.756l16.338,27.949H324.373z M299.917,296.011h12.536c6.165,0,11.097-4.829,11.097-10.994
		s-4.932-11.098-11.097-11.098h-12.536V296.011z"/>
	<path class="st0" d="M359.712,333.927l35.963-77.064h9.145l36.272,77.064h-20.242l-4.727-10.069h-31.545l-4.624,10.069H359.712z
		 M392.491,306.8h15.721l-7.809-16.954L392.491,306.8z"/>
</g>
</svg>